<!DOCTYPE svg PUBLIC "-//W3C//DTD SVG 20010904//EN" "http://www.w3.org/TR/2001/REC-SVG-20010904/DTD/svg10.dtd">
<svg version="1.0" xmlns="http://www.w3.org/2000/svg" width="338px" height="338px" viewBox="0 0 3380 3380" preserveAspectRatio="xMidYMid meet">
<g id="layer101" fill="#101b23" stroke="none">
 <path d="M1405 2540 c-3 -6 1 -7 9 -4 18 7 21 14 7 14 -6 0 -13 -4 -16 -10z"/>
 <path d="M1460 2536 c0 -3 14 -12 30 -21 17 -9 30 -13 30 -11 0 3 -13 12 -30 21 -16 9 -30 13 -30 11z"/>
 <path d="M1364 2514 c-18 -14 -18 -15 4 -4 12 6 22 13 22 15 0 8 -5 6 -26 -11z"/>
 <path d="M1394 2484 c-18 -14 -18 -15 4 -4 12 6 22 13 22 15 0 8 -5 6 -26 -11z"/>
 <path d="M1455 2490 c3 -5 8 -10 11 -10 3 0 2 5 -1 10 -3 6 -8 10 -11 10 -3 0 -2 -4 1 -10z"/>
 <path d="M1294 2474 c-18 -14 -18 -15 4 -4 12 6 22 13 22 15 0 8 -5 6 -26 -11z"/>
 <path d="M1555 2480 c3 -5 8 -10 11 -10 3 0 2 5 -1 10 -3 6 -8 10 -11 10 -3 0 -2 -4 1 -10z"/>
 <path d="M1505 2460 c3 -5 8 -10 11 -10 3 0 2 5 -1 10 -3 6 -8 10 -11 10 -3 0 -2 -4 1 -10z"/>
 <path d="M1238 2447 c-28 -11 -39 -49 -18 -62 6 -3 10 4 10 18 0 14 10 31 23 40 25 18 23 19 -15 4z"/>
 <path d="M1334 2448 c-4 -7 -3 -8 4 -4 12 7 16 16 8 16 -3 0 -8 -5 -12 -12z"/>
 <path d="M1605 2450 c3 -5 8 -10 11 -10 3 0 2 5 -1 10 -3 6 -8 10 -11 10 -3 0 -2 -4 1 -10z"/>
 <path d="M1530 2446 c0 -2 7 -7 16 -10 8 -3 12 -2 9 4 -6 10 -25 14 -25 6z"/>
 <path d="M1638 1697 l2 -742 -22 -18 c-23 -18 -22 -18 10 -2 l32 16 0 733 c0 575 -3 736 -12 744 -10 8 -12 -139 -10 -731z"/>
 <path d="M1284 2418 c-4 -7 -3 -8 4 -4 12 7 16 16 8 16 -3 0 -8 -5 -12 -12z"/>
 <path d="M1575 2420 c3 -5 8 -10 11 -10 3 0 2 5 -1 10 -3 6 -8 10 -11 10 -3 0 -2 -4 1 -10z"/>
 <path d="M1389 2382 c-17 -19 -18 -22 -4 -11 11 9 27 18 35 21 9 3 10 7 3 11 -5 3 -21 -6 -34 -21z"/>
 <path d="M1445 2401 c-3 -6 1 -11 9 -11 8 0 22 -10 30 -22 9 -12 16 -18 16 -12 0 18 -47 57 -55 45z"/>
 <path d="M1604 2220 c0 -107 2 -151 3 -97 2 53 2 141 0 195 -1 53 -3 9 -3 -98z"/>
 <path d="M1424 2373 c10 -11 37 -12 30 -2 -3 5 -12 9 -21 9 -9 0 -13 -3 -9 -7z"/>
 <path d="M1215 2361 c-3 -5 -1 -12 5 -16 5 -3 10 1 10 9 0 18 -6 21 -15 7z"/>
 <path d="M1471 2335 c0 -12 -5 -26 -11 -33 -5 -7 -3 -6 6 2 9 7 14 22 11 32 -4 17 -5 17 -6 -1z"/>
 <path d="M1360 2330 c0 -7 3 -10 7 -7 3 4 3 10 0 14 -4 3 -7 0 -7 -7z"/>
 <path d="M1168 2304 c-38 -20 -36 -28 2 -9 17 9 30 18 30 20 0 7 -1 6 -32 -11z"/>
 <path d="M1483 2294 c-12 -26 -12 -26 7 -9 11 10 17 22 14 26 -7 12 -7 12 -21 -17z"/>
 <path d="M1370 2296 c0 -2 8 -10 18 -17 15 -13 16 -12 3 4 -13 16 -21 21 -21 13z"/>
 <path d="M1104 2264 c-18 -14 -18 -15 4 -4 12 6 22 13 22 15 0 8 -5 6 -26 -11z"/>
 <path d="M1175 2260 c-3 -6 1 -7 9 -4 18 7 21 14 7 14 -6 0 -13 -4 -16 -10z"/>
 <path d="M1215 2251 c-3 -5 -1 -12 5 -16 5 -3 10 1 10 9 0 18 -6 21 -15 7z"/>
 <path d="M1407 2252 c-5 -6 -7 -48 -6 -92 2 -69 -1 -83 -17 -96 -18 -14 -18 -14 4 -4 13 6 25 17 28 24 8 22 0 182 -9 168z"/>
 <path d="M1450 2155 c0 -58 -4 -105 -8 -105 -5 0 -17 -7 -28 -15 -17 -14 -15 -14 14 0 l32 16 0 104 c0 58 -2 105 -5 105 -3 0 -5 -47 -5 -105z"/>
 <path d="M1134 2234 c-18 -14 -18 -15 4 -4 12 6 22 13 22 15 0 8 -5 6 -26 -11z"/>
 <path d="M1040 2230 c-9 -6 -10 -10 -3 -10 6 0 15 5 18 10 8 12 4 12 -15 0z"/>
 <path d="M1220 2210 c0 -7 3 -10 7 -7 3 4 3 10 0 14 -4 3 -7 0 -7 -7z"/>
 <path d="M1203 2183 c4 -3 10 -3 14 0 3 4 0 7 -7 7 -7 0 -10 -3 -7 -7z"/>
 <path d="M1285 2180 c3 -5 8 -10 11 -10 3 0 2 5 -1 10 -3 6 -8 10 -11 10 -3 0 -2 -4 1 -10z"/>
 <path d="M1249 2167 c28 -14 36 -44 18 -67 -11 -13 -10 -13 6 -1 9 7 17 21 17 31 0 20 -30 50 -51 50 -8 0 -3 -6 10 -13z"/>
 <path d="M1300 2144 c0 -8 5 -12 10 -9 6 4 8 11 5 16 -9 14 -15 11 -15 -7z"/>
 <path d="M1164 2139 c-3 -6 -1 -16 5 -22 8 -8 11 -5 11 11 0 24 -5 28 -16 11z"/>
 <path d="M1194 2138 c-4 -7 -3 -8 4 -4 12 7 16 16 8 16 -3 0 -8 -5 -12 -12z"/>
 <path d="M1300 2110 c0 -7 3 -10 7 -7 3 4 3 10 0 14 -4 3 -7 0 -7 -7z"/>
 <path d="M1199 2077 c29 -32 47 -34 81 -6 21 17 22 19 3 10 -32 -16 -64 -13 -87 6 -15 13 -14 10 3 -10z"/>
 <path d="M1003 2063 c4 -3 10 -3 14 0 3 4 0 7 -7 7 -7 0 -10 -3 -7 -7z"/>
 <path d="M974 2048 c-4 -7 -3 -8 4 -4 12 7 16 16 8 16 -3 0 -8 -5 -12 -12z"/>
 <path d="M1115 2050 c3 -5 8 -10 11 -10 3 0 2 5 -1 10 -3 6 -8 10 -11 10 -3 0 -2 -4 1 -10z"/>
 <path d="M940 2030 c-9 -6 -10 -10 -3 -10 6 0 15 5 18 10 8 12 4 12 -15 0z"/>
 <path d="M1014 2024 c-18 -14 -18 -15 4 -4 12 6 22 13 22 15 0 8 -5 6 -26 -11z"/>
 <path d="M1060 2036 c0 -3 9 -10 20 -16 11 -6 20 -8 20 -6 0 3 -9 10 -20 16 -11 6 -20 8 -20 6z"/>
 <path d="M1297 2016 c-48 -29 -61 -43 -22 -23 31 16 74 46 65 46 -3 0 -22 -10 -43 -23z"/>
 <path d="M904 2008 c-4 -7 -3 -8 4 -4 7 4 12 9 12 12 0 8 -9 4 -16 -8z"/>
 <path d="M1185 2010 c3 -5 8 -10 11 -10 3 0 2 5 -1 10 -3 6 -8 10 -11 10 -3 0 -2 -4 1 -10z"/>
 <path d="M1358 2004 c-38 -20 -36 -28 2 -9 17 9 30 18 30 20 0 7 -1 6 -32 -11z"/>
 <path d="M1523 1979 c-29 -17 -53 -33 -53 -36 0 -5 89 44 105 58 16 16 1 9 -52 -22z"/>
 <path d="M944 1984 c-18 -14 -18 -15 4 -4 12 6 22 13 22 15 0 8 -5 6 -26 -11z"/>
 <path d="M1130 1996 c0 -3 9 -10 20 -16 11 -6 20 -8 20 -6 0 3 -9 10 -20 16 -11 6 -20 8 -20 6z"/>
 <path d="M1217 1989 c7 -7 15 -10 18 -7 3 3 -2 9 -12 12 -14 6 -15 5 -6 -5z"/>
 <path d="M848 1979 c-17 -9 -18 -34 -18 -289 l0 -279 33 -16 c28 -14 30 -14 13 0 -11 8 -23 15 -28 15 -4 0 -8 124 -8 276 0 252 2 278 18 290 20 16 14 18 -10 3z"/>
 <path d="M1304 1968 c-4 -7 -3 -8 4 -4 12 7 16 16 8 16 -3 0 -8 -5 -12 -12z"/>
 <path d="M1187 1959 c7 -7 15 -10 18 -7 3 3 -2 9 -12 12 -14 6 -15 5 -6 -5z"/>
 <path d="M1564 1954 c-18 -14 -18 -14 6 -3 31 14 36 19 24 19 -6 0 -19 -7 -30 -16z"/>
 <path d="M1020 1945 c-33 -17 -55 -58 -45 -82 6 -14 10 -10 15 21 8 41 22 56 58 56 13 0 20 4 17 10 -8 13 -14 12 -45 -5z"/>
 <path d="M1604 1705 c0 -137 2 -195 3 -128 2 67 2 179 0 250 -1 70 -3 16 -3 -122z"/>
 <path d="M870 1780 c0 -105 3 -159 10 -155 6 4 10 67 10 155 0 88 -4 151 -10 155 -7 4 -10 -50 -10 -155z"/>
 <path d="M1093 1924 c19 -23 22 -55 6 -87 -9 -19 -7 -18 10 3 28 34 26 52 -6 81 -20 17 -23 18 -10 3z"/>
 <path d="M1217 1933 c-11 -10 -8 -161 3 -168 6 -4 10 27 10 84 0 91 -1 97 -13 84z"/>
 <path d="M1508 1924 c-38 -20 -36 -28 2 -9 17 9 30 18 30 20 0 7 -1 6 -32 -11z"/>
 <path d="M1418 1919 c-13 -7 -18 -23 -18 -59 0 -27 5 -52 10 -55 6 -4 10 14 10 47 0 30 5 59 12 66 15 15 9 15 -14 1z"/>
 <path d="M1014 1908 c-4 -7 -3 -8 4 -4 12 7 16 16 8 16 -3 0 -8 -5 -12 -12z"/>
 <path d="M1000 1880 c0 -7 3 -10 7 -7 3 4 3 10 0 14 -4 3 -7 0 -7 -7z"/>
 <path d="M1453 1840 c0 -25 2 -35 4 -22 2 12 2 32 0 45 -2 12 -4 2 -4 -23z"/>
 <path d="M1015 1850 c3 -5 8 -10 11 -10 3 0 2 5 -1 10 -3 6 -8 10 -11 10 -3 0 -2 -4 1 -10z"/>
 <path d="M1074 1848 c-4 -7 -3 -8 4 -4 12 7 16 16 8 16 -3 0 -8 -5 -12 -12z"/>
 <path d="M995 1830 c3 -5 8 -10 11 -10 3 0 2 5 -1 10 -3 6 -8 10 -11 10 -3 0 -2 -4 1 -10z"/>
 <path d="M1043 1833 c4 -3 10 -3 14 0 3 4 0 7 -7 7 -7 0 -10 -3 -7 -7z"/>
 <path d="M1380 1775 c-7 -9 -11 -17 -9 -20 3 -2 10 5 17 15 14 24 10 26 -8 5z"/>
 <path d="M1478 1772 c9 -10 19 -17 21 -16 6 5 -20 34 -30 34 -5 0 -1 -8 9 -18z"/>
 <path d="M1400 1755 c-7 -9 -11 -17 -9 -20 3 -2 10 5 17 15 14 24 10 26 -8 5z"/>
 <path d="M1456 1760 c7 -8 14 -24 17 -35 4 -19 5 -19 6 1 0 12 -7 28 -16 35 -16 12 -17 12 -7 -1z"/>
 <path d="M1189 1733 c-13 -16 -12 -17 4 -4 9 7 17 15 17 17 0 8 -8 3 -21 -13z"/>
 <path d="M1285 1740 c3 -5 8 -10 11 -10 3 0 2 5 -1 10 -3 6 -8 10 -11 10 -3 0 -2 -4 1 -10z"/>
 <path d="M1233 1733 c4 -3 10 -3 14 0 3 4 0 7 -7 7 -7 0 -10 -3 -7 -7z"/>
 <path d="M1360 1730 c0 -7 3 -10 7 -7 3 4 3 10 0 14 -4 3 -7 0 -7 -7z"/>
 <path d="M1265 1720 c6 -8 10 -18 10 -22 0 -14 15 -20 15 -6 0 9 -8 22 -17 29 -15 12 -16 12 -8 -1z"/>
 <path d="M1196 1703 c-6 -14 -5 -15 5 -6 7 7 10 15 7 18 -3 3 -9 -2 -12 -12z"/>
 <path d="M1300 1690 c0 -18 4 -29 10 -25 6 3 10 15 10 25 0 10 -4 22 -10 25 -6 4 -10 -7 -10 -25z"/>
 <path d="M1164 1699 c-3 -6 -1 -16 5 -22 8 -8 11 -5 11 11 0 24 -5 28 -16 11z"/>
 <path d="M1481 1689 c-10 -17 -20 -20 -51 -17 -30 3 -36 1 -28 -9 17 -21 53 -15 78 12 13 14 21 27 19 30 -3 2 -11 -5 -18 -16z"/>
 <path d="M1425 1690 c-3 -5 1 -10 10 -10 9 0 13 5 10 10 -3 6 -8 10 -10 10 -2 0 -7 -4 -10 -10z"/>
 <path d="M1200 1671 c0 -6 4 -13 10 -16 6 -3 7 1 4 9 -7 18 -14 21 -14 7z"/>
 <path d="M1085 1650 c3 -5 8 -10 11 -10 3 0 2 5 -1 10 -3 6 -8 10 -11 10 -3 0 -2 -4 1 -10z"/>
 <path d="M1233 1643 c4 -3 10 -3 14 0 3 4 0 7 -7 7 -7 0 -10 -3 -7 -7z"/>
 <path d="M1284 1638 c-4 -7 -3 -8 4 -4 12 7 16 16 8 16 -3 0 -8 -5 -12 -12z"/>
 <path d="M1035 1630 c3 -5 8 -10 11 -10 3 0 2 5 -1 10 -3 6 -8 10 -11 10 -3 0 -2 -4 1 -10z"/>
 <path d="M1110 1636 c0 -3 14 -12 30 -21 17 -9 30 -13 30 -11 0 3 -13 12 -30 21 -16 9 -30 13 -30 11z"/>
 <path d="M1212 1623 c12 -15 44 -17 52 -4 3 5 -10 11 -29 13 -27 3 -32 1 -23 -9z"/>
 <path d="M1388 1603 c7 -3 16 -2 19 1 4 3 -2 6 -13 5 -11 0 -14 -3 -6 -6z"/>
 <path d="M910 1596 c0 -3 14 -12 30 -21 17 -9 30 -13 30 -11 0 3 -13 12 -30 21 -16 9 -30 13 -30 11z"/>
 <path d="M1105 1590 c3 -5 8 -10 11 -10 3 0 2 5 -1 10 -3 6 -8 10 -11 10 -3 0 -2 -4 1 -10z"/>
 <path d="M1180 1596 c0 -3 14 -12 30 -21 17 -9 30 -13 30 -11 0 3 -13 12 -30 21 -16 9 -30 13 -30 11z"/>
 <path d="M1339 1583 c-13 -17 -13 -17 6 -3 11 8 22 16 24 17 2 2 0 3 -6 3 -6 0 -17 -8 -24 -17z"/>
 <path d="M1420 1596 c0 -2 7 -7 16 -10 8 -3 12 -2 9 4 -6 10 -25 14 -25 6z"/>
 <path d="M1150 1566 c0 -3 14 -12 30 -21 17 -9 30 -13 30 -11 0 3 -13 12 -30 21 -16 9 -30 13 -30 11z"/>
 <path d="M905 1550 c3 -5 8 -10 11 -10 3 0 2 5 -1 10 -3 6 -8 10 -11 10 -3 0 -2 -4 1 -10z"/>
 <path d="M987 1549 c7 -7 15 -10 18 -7 3 3 -2 9 -12 12 -14 6 -15 5 -6 -5z"/>
 <path d="M1030 1550 c-9 -6 -10 -10 -3 -10 6 0 15 5 18 10 8 12 4 12 -15 0z"/>
 <path d="M1063 1553 c4 -3 10 -3 14 0 3 4 0 7 -7 7 -7 0 -10 -3 -7 -7z"/>
 <path d="M1255 1550 c3 -5 8 -10 11 -10 3 0 2 5 -1 10 -3 6 -8 10 -11 10 -3 0 -2 -4 1 -10z"/>
 <path d="M1323 1545 c-3 -9 -3 -18 -1 -21 3 -3 8 4 11 16 6 23 -1 27 -10 5z"/>
 <path d="M1350 1550 c0 -7 3 -10 7 -7 3 4 3 10 0 14 -4 3 -7 0 -7 -7z"/>
 <path d="M1432 1540 c0 -14 2 -19 5 -12 2 6 2 18 0 25 -3 6 -5 1 -5 -13z"/>
 <path d="M870 1495 c0 -35 4 -54 10 -50 6 3 10 26 10 50 0 24 -4 47 -10 50 -6 4 -10 -15 -10 -50z"/>
 <path d="M1103 1534 c9 -11 17 -29 17 -39 0 -15 3 -16 12 -7 10 10 6 18 -17 40 -16 15 -22 18 -12 6z"/>
 <path d="M965 1516 c11 -10 19 -23 17 -31 -1 -7 2 -17 9 -20 7 -5 9 1 7 15 -1 13 -14 29 -28 37 -24 15 -24 14 -5 -1z"/>
 <path d="M1043 1523 c4 -3 10 -3 14 0 3 4 0 7 -7 7 -7 0 -10 -3 -7 -7z"/>
 <path d="M1217 1513 c-11 -10 -8 -61 3 -68 6 -4 10 10 10 34 0 42 -2 46 -13 34z"/>
 <path d="M1470 1516 c0 -3 14 -12 30 -21 17 -9 30 -13 30 -11 0 3 -13 12 -30 21 -16 9 -30 13 -30 11z"/>
 <path d="M1015 1499 c-4 -6 -5 -12 -2 -15 2 -3 7 2 10 11 7 17 1 20 -8 4z"/>
 <path d="M1095 1491 c-3 -5 -1 -12 5 -16 5 -3 10 1 10 9 0 18 -6 21 -15 7z"/>
 <path d="M1388 1493 c7 -3 16 -2 19 1 4 3 -2 6 -13 5 -11 0 -14 -3 -6 -6z"/>
 <path d="M1350 1480 c8 -5 20 -10 25 -10 6 0 3 5 -5 10 -8 5 -19 10 -25 10 -5 0 -3 -5 5 -10z"/>
 <path d="M1420 1480 c-8 -5 -10 -10 -5 -10 6 0 17 5 25 10 8 5 11 10 5 10 -5 0 -17 -5 -25 -10z"/>
 <path d="M1460 1476 c0 -3 9 -10 20 -16 11 -6 20 -8 20 -6 0 3 -9 10 -20 16 -11 6 -20 8 -20 6z"/>
 <path d="M1029 1458 c7 -10 23 -17 35 -17 20 1 20 2 1 6 -11 3 -27 10 -35 17 -13 10 -13 9 -1 -6z"/>
 <path d="M1103 1443 c-12 -13 -19 -23 -14 -23 10 0 46 39 40 43 -2 2 -14 -7 -26 -20z"/>
 <path d="M1565 1460 c3 -5 8 -10 11 -10 3 0 2 5 -1 10 -3 6 -8 10 -11 10 -3 0 -2 -4 1 -10z"/>
 <path d="M1005 1440 c3 -5 8 -10 11 -10 3 0 2 5 -1 10 -3 6 -8 10 -11 10 -3 0 -2 -4 1 -10z"/>
 <path d="M1510 1446 c0 -3 14 -12 30 -21 17 -9 30 -13 30 -11 0 3 -13 12 -30 21 -16 9 -30 13 -30 11z"/>
 <path d="M1185 1420 c-3 -6 1 -7 9 -4 18 7 21 14 7 14 -6 0 -13 -4 -16 -10z"/>
 <path d="M1271 1426 c2 -2 15 -9 29 -15 24 -11 24 -11 6 3 -16 13 -49 24 -35 12z"/>
 <path d="M955 1390 c3 -5 8 -10 11 -10 3 0 2 5 -1 10 -3 6 -8 10 -11 10 -3 0 -2 -4 1 -10z"/>
 <path d="M1134 1388 c-4 -7 -3 -8 4 -4 7 4 12 9 12 12 0 8 -9 4 -16 -8z"/>
 <path d="M1216 1391 c-4 -5 3 -7 13 -4 10 3 30 0 42 -7 23 -11 23 -10 5 4 -22 18 -52 21 -60 7z"/>
 <path d="M1330 1396 c0 -3 14 -12 30 -21 17 -9 30 -13 30 -11 0 3 -13 12 -30 21 -16 9 -30 13 -30 11z"/>
 <path d="M1604 1185 c0 -115 2 -161 3 -102 2 59 2 154 0 210 -1 56 -3 8 -3 -108z"/>
 <path d="M900 1376 c0 -3 9 -10 20 -16 11 -6 20 -8 20 -6 0 3 -9 10 -20 16 -11 6 -20 8 -20 6z"/>
 <path d="M980 1376 c0 -3 14 -12 30 -21 17 -9 30 -13 30 -11 0 3 -13 12 -30 21 -16 9 -30 13 -30 11z"/>
 <path d="M1088 1364 c-38 -20 -36 -28 2 -9 17 9 30 18 30 20 0 7 -1 6 -32 -11z"/>
 <path d="M1174 1364 c-18 -14 -18 -15 4 -4 12 6 22 13 22 15 0 8 -5 6 -26 -11z"/>
 <path d="M1300 1366 c0 -3 14 -12 30 -21 17 -9 30 -13 30 -11 0 3 -13 12 -30 21 -16 9 -30 13 -30 11z"/>
 <path d="M950 1346 c0 -3 9 -10 20 -16 11 -6 20 -8 20 -6 0 3 -9 10 -20 16 -11 6 -20 8 -20 6z"/>
 <path d="M1432 1337 c14 -11 18 -34 21 -118 l3 -104 2 107 c2 102 1 108 -20 118 -21 10 -21 10 -6 -3z"/>
 <path d="M1104 1324 c-18 -14 -18 -15 4 -4 12 6 22 13 22 15 0 8 -5 6 -26 -11z"/>
 <path d="M1211 1316 c-10 -12 -8 -13 8 -9 36 9 69 -5 78 -34 6 -16 12 -22 16 -16 9 15 -49 73 -73 73 -9 0 -23 -6 -29 -14z"/>
 <path d="M1377 1319 c7 -7 15 -10 18 -7 3 3 -2 9 -12 12 -14 6 -15 5 -6 -5z"/>
 <path d="M1225 1290 c-3 -6 1 -7 9 -4 18 7 21 14 7 14 -6 0 -13 -4 -16 -10z"/>
 <path d="M1407 1293 c-11 -10 -8 -161 3 -168 6 -4 10 27 10 84 0 91 -1 97 -13 84z"/>
 <path d="M1265 1280 c3 -5 8 -10 11 -10 3 0 2 5 -1 10 -3 6 -8 10 -11 10 -3 0 -2 -4 1 -10z"/>
 <path d="M1165 1260 c-5 -8 10 -50 19 -50 1 0 1 14 -2 30 -5 32 -7 36 -17 20z"/>
 <path d="M1280 1258 c-2 -5 -3 -11 -4 -15 -1 -5 -5 -15 -10 -23 -7 -11 -4 -11 9 2 9 9 15 22 12 30 -3 7 -6 10 -7 6z"/>
 <path d="M1300 1230 c0 -7 3 -10 7 -7 3 4 3 10 0 14 -4 3 -7 0 -7 -7z"/>
 <path d="M1233 1203 c4 -3 10 -3 14 0 3 4 0 7 -7 7 -7 0 -10 -3 -7 -7z"/>
 <path d="M1284 1198 c-4 -7 -3 -8 4 -4 12 7 16 16 8 16 -3 0 -8 -5 -12 -12z"/>
 <path d="M1220 1160 c0 -7 3 -10 7 -7 3 4 3 10 0 14 -4 3 -7 0 -7 -7z"/>
 <path d="M1030 1156 c0 -2 7 -7 16 -10 8 -3 12 -2 9 4 -6 10 -25 14 -25 6z"/>
 <path d="M1125 1150 c3 -5 8 -10 11 -10 3 0 2 5 -1 10 -3 6 -8 10 -11 10 -3 0 -2 -4 1 -10z"/>
 <path d="M1220 1130 c0 -7 3 -10 7 -7 3 4 3 10 0 14 -4 3 -7 0 -7 -7z"/>
 <path d="M1095 1123 c6 -6 37 -26 70 -44 33 -18 56 -28 50 -22 -5 5 -37 25 -70 43 -33 18 -55 28 -50 23z"/>
 <path d="M1177 1119 c7 -7 15 -10 18 -7 3 3 -2 9 -12 12 -14 6 -15 5 -6 -5z"/>
 <path d="M1380 1095 c-7 -9 -11 -17 -9 -20 3 -2 10 5 17 15 14 24 10 26 -8 5z"/>
 <path d="M1475 1100 c3 -5 8 -10 11 -10 3 0 2 5 -1 10 -3 6 -8 10 -11 10 -3 0 -2 -4 1 -10z"/>
 <path d="M1400 1075 c-7 -9 -11 -17 -9 -20 3 -2 10 5 17 15 14 24 10 26 -8 5z"/>
 <path d="M1360 1050 c0 -7 3 -10 7 -7 3 4 3 10 0 14 -4 3 -7 0 -7 -7z"/>
 <path d="M1465 1038 c-6 -13 -15 -23 -22 -23 -6 0 -15 -3 -19 -7 -4 -5 -1 -8 8 -8 18 0 51 35 46 50 -2 6 -8 0 -13 -12z"/>
 <path d="M1215 1028 c-4 -10 -4 -26 0 -35 8 -17 8 -17 12 0 3 9 3 25 0 35 -4 16 -4 16 -12 0z"/>
 <path d="M1482 1010 c-7 -11 -19 -20 -28 -20 -8 0 -12 -5 -8 -11 4 -7 16 -2 32 15 14 14 24 28 21 30 -3 3 -10 -4 -17 -14z"/>
 <path d="M1389 998 c13 -15 29 -24 34 -21 7 4 6 8 -3 11 -8 3 -24 12 -35 21 -14 11 -13 8 4 -11z"/>
 <path d="M1265 970 c3 -5 8 -10 11 -10 3 0 2 5 -1 10 -3 6 -8 10 -11 10 -3 0 -2 -4 1 -10z"/>
 <path d="M1217 963 c-12 -12 -7 -21 14 -26 17 -5 18 -3 7 11 -7 9 -13 18 -14 20 0 1 -4 -1 -7 -5z"/>
 <path d="M1575 960 c-3 -6 1 -7 9 -4 18 7 21 14 7 14 -6 0 -13 -4 -16 -10z"/>
 <path d="M1297 949 c7 -7 15 -10 18 -7 3 3 -2 9 -12 12 -14 6 -15 5 -6 -5z"/>
 <path d="M1528 934 c-38 -20 -36 -28 2 -9 17 9 30 18 30 20 0 7 -1 6 -32 -11z"/>
 <path d="M1335 930 c3 -5 8 -10 11 -10 3 0 2 5 -1 10 -3 6 -8 10 -11 10 -3 0 -2 -4 1 -10z"/>
 <path d="M1280 916 c0 -3 14 -12 30 -21 17 -9 30 -13 30 -11 0 3 -13 12 -30 21 -16 9 -30 13 -30 11z"/>
 <path d="M1380 906 c0 -3 9 -10 20 -16 11 -6 20 -8 20 -6 0 3 -9 10 -20 16 -11 6 -20 8 -20 6z"/>
 <path d="M1464 894 c-18 -14 -18 -15 4 -4 12 6 22 13 22 15 0 8 -5 6 -26 -11z"/>
 <path d="M1544 894 c-18 -14 -18 -15 4 -4 12 6 22 13 22 15 0 8 -5 6 -26 -11z"/>
 <path d="M1350 876 c0 -3 9 -10 20 -16 11 -6 20 -8 20 -6 0 3 -9 10 -20 16 -11 6 -20 8 -20 6z"/>
 <path d="M1484 858 c-4 -7 -3 -8 4 -4 12 7 16 16 8 16 -3 0 -8 -5 -12 -12z"/>
 <path d="M1410 835 c0 -7 30 -13 34 -7 3 4 -4 9 -15 9 -10 1 -19 0 -19 -2z"/>
 </g>
<g id="layer102" fill="#1b2832" stroke="none">
 <path d="M1427 2543 c6 -15 4 -16 -8 -6 -13 10 -19 10 -35 -3 -10 -8 -13 -13 -6 -9 21 11 13 -4 -9 -16 -17 -9 -20 -8 -14 3 4 7 -2 3 -14 -10 -12 -12 -27 -19 -33 -16 -7 5 -8 2 -4 -5 5 -8 3 -12 -5 -10 -27 3 -40 -1 -34 -12 4 -6 -2 -17 -14 -25 -12 -8 -21 -24 -21 -35 0 -11 -4 -17 -10 -14 -5 3 -10 -1 -10 -10 0 -9 5 -13 10 -10 6 3 10 -1 10 -10 0 -9 -4 -14 -9 -11 -4 3 -13 -6 -20 -20 -7 -17 -17 -24 -27 -20 -8 3 -13 2 -10 -3 3 -5 -1 -12 -10 -15 -9 -4 -13 -2 -8 5 4 8 0 7 -15 0 -11 -7 -21 -14 -21 -17 0 -3 5 -2 10 1 6 3 10 4 10 1 0 -3 -10 -10 -21 -17 -17 -9 -20 -8 -14 3 4 7 -2 3 -14 -10 -12 -12 -27 -19 -33 -16 -7 5 -8 2 -3 -6 6 -9 4 -12 -7 -8 -12 5 -14 -2 -10 -42 6 -62 -5 -123 -21 -117 -7 2 -18 -3 -25 -12 -8 -10 -11 -10 -6 -2 5 9 3 12 -4 7 -7 -4 -12 -14 -12 -23 0 -10 -6 -14 -20 -10 -13 3 -20 0 -20 -10 0 -8 -6 -13 -12 -10 -7 2 -21 -5 -30 -16 -11 -12 -24 -17 -35 -13 -12 5 -15 4 -8 -3 6 -6 8 -110 5 -290 -4 -242 -3 -278 9 -268 12 10 14 9 8 -6 -5 -12 -3 -16 5 -11 6 4 16 1 22 -7 6 -8 18 -14 26 -14 8 0 14 -5 13 -11 -1 -6 5 -11 13 -12 8 -1 21 -3 29 -4 9 -1 14 -7 11 -15 -3 -8 -1 -11 4 -8 6 3 10 1 10 -5 0 -6 4 -9 8 -6 10 6 39 -26 36 -39 -1 -6 -4 -35 -6 -67 -4 -44 -2 -55 9 -51 8 3 21 -3 31 -13 9 -11 24 -19 32 -19 8 0 14 -5 13 -12 -2 -7 4 -10 12 -7 17 7 48 -20 37 -31 -4 -5 -1 -5 5 -1 20 11 53 -12 46 -31 -4 -11 -3 -14 5 -9 8 5 12 -3 12 -24 0 -18 -4 -29 -10 -25 -5 3 -10 -1 -10 -10 0 -9 5 -13 10 -10 9 6 14 -8 11 -28 -1 -5 3 -6 9 -2 5 3 10 2 10 -4 0 -6 10 -15 21 -22 15 -7 19 -8 15 0 -5 7 -1 9 8 5 9 -3 13 -11 9 -17 -4 -6 -1 -7 7 -2 8 5 20 -1 32 -16 11 -13 17 -18 13 -11 -6 12 -4 12 15 0 12 -7 31 -18 41 -24 10 -6 16 -13 13 -17 -3 -3 2 -4 13 -2 10 2 21 4 25 4 4 1 5 7 2 15 -4 10 0 13 13 11 10 -1 28 9 40 22 12 14 29 23 36 20 8 -3 22 4 31 14 9 11 22 17 28 13 7 -5 8 -3 3 6 -6 10 -4 12 8 7 15 -6 16 55 17 739 0 498 -3 743 -10 739 -6 -3 -7 0 -4 10 5 13 9 13 22 3 12 -10 14 -10 8 -1 -4 7 -16 18 -28 24 -16 9 -19 8 -12 -3 9 -15 -23 7 -44 32 -12 13 -13 13 -7 0 4 -8 -1 -6 -10 5 -9 11 -17 18 -18 16 -1 -2 -12 -1 -25 3 -12 4 -20 12 -17 17 3 5 0 6 -8 3 -8 -3 -18 0 -23 7 -5 8 -3 10 7 5 8 -4 5 0 -5 8 -27 22 -47 21 -39 -1z m29 -46 c8 3 14 -1 14 -11 0 -8 10 -20 21 -27 17 -9 20 -8 14 3 -4 7 -1 7 7 -2 7 -9 22 -14 32 -12 14 3 17 0 13 -11 -3 -9 1 -18 9 -21 10 -4 13 -1 9 7 -4 6 0 4 8 -5 8 -10 17 -15 20 -11 4 3 7 -80 7 -185 0 -160 -3 -193 -16 -206 -8 -9 -20 -13 -26 -10 -7 5 -8 2 -4 -5 5 -8 0 -14 -13 -18 -12 -3 -21 -10 -21 -15 0 -6 -9 -8 -20 -5 -13 3 -18 1 -13 -6 4 -6 0 -8 -9 -5 -8 4 -22 -2 -32 -13 -9 -11 -20 -18 -24 -15 -4 2 -8 -23 -9 -56 -3 -58 -15 -90 -33 -85 -8 2 -10 -3 -10 -22 0 -5 7 -12 16 -15 8 -3 12 -2 9 4 -12 19 26 22 46 4 12 -11 23 -18 25 -16 2 1 4 0 4 -3 0 -3 0 -10 0 -16 0 -5 -3 -8 -7 -6 -5 3 -14 -1 -20 -8 -10 -11 -10 -17 3 -29 20 -20 25 -20 17 1 -5 12 -2 15 8 11 9 -4 15 1 16 11 1 9 4 27 9 40 5 18 4 22 -5 17 -8 -6 -11 -2 -9 10 2 14 -2 18 -16 16 -11 -2 -15 1 -11 7 3 6 2 11 -3 11 -6 0 -12 16 -14 36 -3 27 0 38 14 45 10 5 18 17 18 26 0 10 6 14 20 10 11 -3 18 -2 15 3 -3 4 2 11 11 14 10 4 13 2 9 -7 -4 -6 1 -3 9 7 9 11 16 23 16 27 0 4 11 2 25 -4 l25 -12 0 -242 c0 -141 -4 -243 -9 -243 -5 0 -16 -3 -25 -6 -10 -4 -16 -1 -16 8 0 8 -7 15 -15 16 -8 1 -22 3 -30 4 -9 1 -14 7 -11 14 3 7 -2 10 -15 7 -13 -4 -19 0 -20 13 -4 52 -7 66 -19 77 -10 9 -11 9 -6 0 5 -9 2 -11 -8 -7 -10 4 -16 1 -16 -7 0 -7 -3 -9 -6 -6 -4 4 -1 13 6 22 8 9 8 15 2 15 -6 0 -14 -5 -18 -11 -4 -8 -9 -8 -17 0 -15 15 -30 14 -21 -1 5 -8 2 -9 -9 -5 -9 3 -19 1 -23 -5 -5 -7 -2 -8 7 -4 8 4 6 1 -3 -7 -18 -14 -26 -33 -10 -23 4 2 7 -11 6 -30 -1 -24 2 -34 13 -34 8 0 12 -4 9 -8 -3 -5 5 -8 17 -7 12 1 28 -3 36 -9 9 -7 12 -7 9 -1 -4 6 2 16 13 23 10 7 19 8 19 3 0 -5 -6 -11 -12 -13 -7 -3 -2 -7 10 -10 12 -4 20 -2 16 3 -3 5 2 6 10 3 9 -3 13 -10 10 -15 -3 -5 -2 -8 3 -7 16 4 53 -14 48 -23 -3 -5 2 -6 11 -2 11 4 15 3 10 -5 -4 -7 1 -10 14 -7 15 3 20 -1 20 -16 0 -11 5 -17 10 -14 7 4 10 -65 10 -199 0 -138 -3 -206 -11 -206 -5 0 -7 -5 -3 -12 5 -8 2 -9 -10 -5 -13 5 -19 1 -23 -13 -3 -11 -20 -24 -39 -30 -19 -7 -34 -16 -34 -22 0 -6 -9 -8 -21 -5 -12 3 -22 0 -25 -8 -5 -11 -11 -11 -30 -3 -13 6 -21 15 -17 21 3 6 1 7 -5 3 -6 -3 -16 0 -24 7 -7 8 -19 12 -26 9 -6 -2 -12 3 -12 11 0 10 -7 13 -20 10 -14 -4 -20 0 -20 11 0 8 -6 13 -12 11 -10 -4 -12 20 -11 102 3 114 7 138 23 128 6 -3 7 1 4 10 -4 10 -2 15 7 13 8 -2 15 7 17 19 3 17 0 21 -12 17 -9 -3 -16 -10 -16 -16 0 -5 -5 -6 -12 -2 -7 4 -8 3 -4 -4 3 -6 -2 -16 -13 -21 -25 -14 -34 -14 -26 -1 5 9 -6 14 -25 12 -11 -1 -9 47 2 54 20 13 60 11 65 -3 8 -21 18 -15 18 10 0 17 -6 23 -20 23 -11 -1 -23 -5 -27 -10 -3 -5 -14 -2 -23 7 -18 19 -35 14 -35 -9 0 -8 -5 -14 -11 -14 -6 0 -7 -5 -2 -12 4 -7 8 -26 9 -43 1 -16 6 -29 11 -28 6 1 10 -16 9 -40 -1 -32 -5 -43 -20 -45 -13 -3 -17 0 -13 11 3 9 -4 19 -19 26 -18 8 -23 8 -19 0 4 -6 -2 -5 -14 3 -12 7 -21 17 -21 23 0 5 -4 4 -9 -4 -7 -11 -11 -6 -15 20 -15 91 -9 115 38 141 14 8 17 7 11 -4 -4 -7 2 -3 14 10 12 12 27 19 33 16 6 -4 8 -3 5 3 -4 6 0 14 9 17 9 4 13 2 8 -5 -4 -8 0 -7 15 0 11 7 21 14 21 17 0 3 -5 2 -12 -2 -7 -4 -8 -3 -4 4 4 7 16 12 27 12 11 0 17 -4 14 -10 -4 -6 1 -7 11 -3 12 4 15 3 10 -6 -4 -6 -4 -11 1 -10 17 4 63 -14 75 -29 10 -12 10 -14 1 -8 -7 4 -13 5 -13 2 0 -3 9 -10 20 -16 17 -9 19 -8 14 7 -5 14 -4 15 4 4 6 -8 15 -10 23 -5 12 6 12 5 0 -9 -13 -17 -12 -18 11 -21 7 -1 10 -28 9 -86 -2 -83 -9 -105 -34 -105 -7 0 -11 -9 -9 -19 2 -10 -1 -15 -7 -12 -6 4 -9 -5 -7 -21 4 -33 45 -70 57 -51 5 8 2 15 -8 19 -19 7 -26 38 -12 56 7 8 18 9 34 3 13 -5 26 -6 31 -2 4 4 4 1 0 -5 -4 -7 -3 -13 2 -13 6 0 13 -7 16 -16 4 -12 2 -15 -9 -10 -8 3 -14 0 -12 -7 1 -7 -3 -11 -10 -10 -7 2 -10 -3 -7 -10 2 -7 13 -13 24 -13 10 0 16 4 14 8 -3 4 2 18 10 30 20 28 20 39 0 64 -8 10 -12 12 -8 4 7 -12 5 -13 -8 -3 -8 7 -18 10 -21 7 -3 -3 -5 48 -4 114 2 104 0 119 -12 109 -12 -10 -14 -9 -8 6 4 11 3 16 -3 12 -6 -3 -10 -1 -10 4 0 6 -3 10 -7 9 -17 -3 -63 15 -75 30 -10 12 -10 14 0 8 6 -4 12 -5 12 -2 0 3 -10 10 -21 17 -15 7 -19 8 -15 0 5 -7 1 -9 -8 -5 -9 3 -14 10 -11 14 3 5 -3 6 -12 4 -16 -5 -18 3 -16 65 1 64 0 69 -18 66 -10 -2 -19 0 -19 4 0 5 -9 11 -21 14 -14 4 -18 10 -13 19 5 9 2 8 -11 -2 -10 -8 -16 -10 -12 -3 4 7 -1 14 -13 18 -11 4 -17 11 -14 17 5 7 2 8 -6 3 -8 -5 -19 1 -32 16 -15 20 -17 21 -12 4 6 -19 6 -19 -9 1 -32 43 -20 199 14 178 5 -3 6 3 2 12 -3 10 -2 15 3 12 10 -7 10 64 0 81 -4 6 -16 16 -28 22 -16 8 -19 8 -13 -1 6 -9 0 -11 -23 -8 -17 2 -29 1 -26 -3 2 -4 0 -9 -5 -11 -4 -1 -11 -12 -15 -24 -7 -24 19 -30 28 -7 4 9 1 11 -6 7 -6 -4 -8 -3 -5 3 3 5 19 8 36 5 23 -3 30 -10 33 -34 3 -21 0 -32 -13 -39 -24 -12 -32 -11 -23 3 5 8 2 9 -10 5 -10 -4 -19 -1 -22 8 -9 23 -20 18 -20 -9 0 -14 3 -23 7 -20 19 11 32 -31 30 -101 -2 -76 8 -107 38 -113 8 -2 21 -11 29 -20 9 -12 12 -13 7 -2 -4 10 -2 10 8 -2 11 -14 16 -15 27 -5 9 9 11 9 6 0 -4 -7 2 -14 14 -18 11 -4 18 -11 15 -16 -3 -5 0 -6 8 -3 8 3 18 0 23 -7 5 -8 3 -10 -7 -4 -12 8 -12 6 0 -8 7 -9 17 -14 22 -11 5 3 9 -13 9 -35 0 -28 -4 -40 -12 -38 -7 1 -12 -3 -11 -10 2 -6 -6 -15 -17 -18 -11 -4 -20 -11 -20 -17 0 -6 -3 -8 -7 -5 -3 4 -13 1 -21 -6 -13 -10 -14 -9 -8 3 4 8 -1 4 -12 -9 -13 -16 -24 -21 -33 -16 -8 5 -11 5 -7 1 4 -5 2 -14 -5 -21 -15 -16 -71 1 -60 18 4 8 1 7 -9 -1 -13 -10 -17 -10 -22 3 -4 11 -2 14 6 9 7 -4 8 -3 4 5 -4 6 -16 9 -27 6 -13 -5 -19 -2 -19 10 0 9 -4 14 -9 10 -5 -3 -15 1 -23 8 -7 8 -19 12 -26 9 -8 -2 -10 2 -5 14 4 12 3 15 -6 10 -9 -6 -11 6 -9 50 3 50 6 57 26 60 14 3 22 -1 22 -11 0 -8 10 -19 21 -26 16 -8 20 -8 14 1 -6 9 -3 9 14 1 24 -13 40 -41 34 -58 -3 -7 1 -13 7 -13 7 0 10 -7 6 -15 -7 -20 39 -32 59 -15 8 6 19 9 24 5 7 -4 8 1 4 11 -5 13 -3 16 10 11 12 -4 14 -2 10 10 -4 11 -2 14 5 9 7 -4 12 -1 12 9 0 10 -5 13 -11 9 -8 -5 -10 1 -7 20 3 14 1 29 -5 33 -6 3 -7 1 -3 -5 4 -7 3 -12 -3 -12 -5 0 -14 6 -18 14 -4 8 -21 17 -36 20 -16 3 -25 1 -22 -5 4 -5 -8 -9 -24 -9 -17 0 -31 4 -31 9 0 5 -9 13 -20 16 -12 4 -17 11 -13 18 4 8 1 8 -9 -1 -13 -10 -17 -10 -22 3 -4 11 -2 14 6 9 7 -5 8 -3 4 5 -5 7 -14 10 -22 7 -8 -3 -13 0 -11 7 1 7 -4 11 -10 10 -10 -2 -13 32 -13 147 0 83 0 153 0 158 0 4 4 7 9 7 6 0 19 10 31 23 12 12 25 20 30 17 6 -4 7 2 3 12 -6 15 -4 16 8 6 12 -10 18 -8 32 8 10 11 23 17 29 13 6 -4 8 -3 5 3 -10 17 24 25 41 11 13 -11 14 -11 7 2 -11 18 43 -15 63 -39 8 -9 11 -10 7 -4 -4 9 -1 11 9 7 9 -3 13 -11 9 -17 -3 -5 -2 -8 3 -4 11 7 52 -14 54 -28 1 -5 6 -9 11 -7 5 1 9 -39 9 -90 0 -50 -3 -88 -7 -85 -3 4 -12 2 -20 -4 -10 -9 -10 -15 -2 -25 13 -16 43 -19 34 -4 -8 13 1 13 26 -1 11 -5 17 -14 14 -19 -3 -6 1 -7 9 -4 20 8 20 11 -1 34 -16 16 -17 32 -13 117 3 54 8 97 13 96 4 -2 16 6 27 17 12 12 26 18 32 14 7 -5 8 -3 3 6 -6 10 -4 12 9 7 9 -4 14 -3 11 2 -3 5 4 12 15 16 11 3 20 11 20 17 0 6 9 8 20 5 11 -3 18 -1 15 3 -3 5 -1 11 5 15 6 3 10 48 10 101 0 83 3 97 21 117 12 12 18 16 14 8 -6 -10 -4 -12 4 -7 9 6 9 11 0 22 -10 13 -6 18 14 15 11 -2 8 27 -4 34 -6 4 -8 13 -5 21 3 9 0 11 -11 7 -13 -5 -15 -2 -10 12 6 15 5 16 -8 5 -14 -11 -19 -7 -16 13 0 4 -6 7 -14 7 -9 0 -12 -6 -9 -15 4 -8 10 -15 16 -15 5 0 6 -5 2 -12 -4 -7 -3 -8 4 -4 7 4 12 1 12 -8 0 -9 6 -15 13 -13 6 1 12 -5 12 -13 0 -8 -4 -15 -10 -16 -20 -2 -75 -26 -75 -33 0 -4 4 -11 10 -17 8 -8 15 -108 11 -166 -1 -17 -33 -44 -60 -50 -7 -2 -25 -13 -39 -26 -14 -12 -32 -20 -39 -17 -8 2 -12 1 -9 -4 3 -5 -1 -12 -10 -15 -10 -4 -13 -2 -8 7 5 7 1 6 -10 -3 -16 -12 -20 -11 -37 10 -16 21 -18 22 -13 5 l5 -20 -13 20 c-7 11 -19 21 -27 23 -8 2 -21 11 -29 20 -9 12 -12 13 -7 2 4 -10 2 -9 -8 2 -8 10 -16 15 -19 13 -11 -11 -30 26 -31 57 -1 45 12 90 23 83 6 -3 10 -2 10 2 0 5 14 17 31 27 18 11 29 13 24 6 -6 -9 -3 -10 14 -1 11 7 21 14 21 17 0 3 -6 2 -12 -2 -10 -5 -10 -4 -1 6 9 10 15 10 26 2 8 -7 17 -9 20 -5 4 3 7 -1 7 -11 0 -9 -4 -14 -10 -11 -5 3 -10 -2 -10 -11 0 -10 -10 -28 -22 -41 -15 -16 -19 -26 -11 -34 12 -12 65 9 56 24 -3 5 -8 4 -13 -3 -5 -8 -9 -7 -14 5 -5 15 -2 16 21 10 32 -8 55 -24 48 -34 -2 -4 2 -8 10 -8 8 0 15 4 15 9 0 5 5 6 11 2 8 -4 8 0 0 15 -7 11 -14 21 -17 21 -3 0 -2 -6 2 -12 4 -7 -1 -6 -10 3 -13 12 -17 37 -19 121 -1 59 0 105 2 102 2 -2 9 3 15 11 6 7 18 15 26 17 8 2 21 10 28 18 12 13 13 13 6 0 -4 -8 3 -5 15 8 12 12 27 19 33 16 6 -4 8 -3 4 4 -3 6 3 13 14 17 11 3 21 12 21 18 1 7 3 4 6 -5 2 -10 10 -15 19 -11z m-169 -44 c-4 -3 -7 0 -7 7 0 7 3 10 7 7 3 -4 3 -10 0 -14z m183 -147 c0 -3 -5 -8 -12 -12 -7 -4 -8 -3 -4 4 7 12 16 16 16 8z m-243 -103 c-4 -3 -7 0 -7 7 0 7 3 10 7 7 3 -4 3 -10 0 -14z m370 -240 c-4 -3 -10 -3 -14 0 -3 4 0 7 7 7 7 0 10 -3 7 -7z m-120 -30 c-4 -3 -7 0 -7 7 0 7 3 10 7 7 3 -4 3 -10 0 -14z m-376 -10 c13 -16 12 -17 -3 -4 -17 13 -22 21 -14 21 2 0 10 -8 17 -17z m364 -163 c3 -5 4 -10 1 -10 -3 0 -8 5 -11 10 -3 6 -4 10 -1 10 3 0 8 -4 11 -10z m-52 -198 c10 -9 17 -10 22 -2 3 5 12 10 18 10 8 0 8 -3 -1 -9 -7 -4 -12 -12 -10 -17 2 -5 1 -9 -2 -9 -11 0 -38 -30 -33 -37 2 -5 -3 -8 -11 -8 -8 0 -18 5 -21 10 -4 6 -10 8 -13 6 -4 -2 -8 9 -8 24 -1 17 3 28 10 27 6 -1 10 3 9 10 -3 14 20 11 40 -5z m-312 -66 c5 3 9 -3 9 -12 0 -10 -3 -14 -7 -11 -9 9 -34 -13 -27 -24 10 -17 -34 -9 -47 9 -12 15 -12 16 1 7 9 -5 8 -2 -3 7 -20 19 -15 38 9 38 9 0 12 5 8 12 -5 8 -2 9 9 5 10 -4 17 -1 18 6 0 7 5 0 11 -16 5 -15 14 -25 19 -21z m206 -273 c-4 -3 -7 0 -7 7 0 7 3 10 7 7 3 -4 3 -10 0 -14z m-80 -70 c-4 -3 -7 0 -7 7 0 7 3 10 7 7 3 -4 3 -10 0 -14z m0 -30 c-4 -3 -7 0 -7 7 0 7 3 10 7 7 3 -4 3 -10 0 -14z m350 -180 c-4 -3 -7 0 -7 7 0 7 3 10 7 7 3 -4 3 -10 0 -14z"/>
 <path d="M1384 2388 c-4 -6 -3 -8 3 -5 6 4 13 0 17 -8 3 -8 10 -15 15 -15 14 0 2 27 -14 34 -8 3 -17 0 -21 -6z"/>
 <path d="M1370 2355 c-10 -12 -10 -15 0 -15 9 0 9 -4 -1 -17 -11 -13 -11 -17 -1 -20 6 -3 9 -9 6 -15 -4 -6 3 -5 16 2 15 8 19 17 14 28 -3 9 -6 25 -6 35 1 21 -11 22 -28 2z m27 -42 c-4 -3 -10 -3 -14 0 -3 4 0 7 7 7 7 0 10 -3 7 -7z"/>
 <path d="M1300 2130 c-10 -6 -11 -10 -2 -10 6 0 12 -5 12 -11 0 -5 -4 -7 -10 -4 -5 3 -21 -2 -35 -11 -16 -11 -25 -12 -25 -5 0 7 -4 9 -10 6 -5 -3 -15 3 -22 15 -7 11 -16 20 -21 20 -4 0 -6 -4 -3 -9 4 -5 0 -12 -6 -14 -8 -3 -6 -6 5 -6 11 -1 17 -7 15 -18 -2 -15 3 -17 27 -14 17 3 40 5 52 5 12 1 20 3 17 5 -2 2 3 9 12 16 21 15 15 48 -6 35z"/>
 <path d="M1394 2078 c-4 -7 -3 -8 4 -4 12 7 16 16 8 16 -3 0 -8 -5 -12 -12z"/>
 <path d="M1364 1735 c2 -15 7 -30 12 -33 5 -4 9 -13 9 -19 0 -7 3 -13 8 -13 4 0 11 0 16 0 5 0 12 7 15 16 4 11 2 15 -6 11 -16 -5 -36 14 -31 29 2 6 -3 16 -11 23 -12 11 -14 8 -12 -14z"/>
 <path d="M1175 1712 c12 -8 13 -22 2 -39 -5 -7 -4 -13 1 -13 5 0 12 -9 15 -19 6 -23 44 -18 44 5 0 9 -6 13 -14 10 -15 -6 -33 31 -26 52 3 7 -3 12 -13 12 -11 0 -15 -3 -9 -8z"/>
 <path d="M1290 1689 c0 -5 -5 -7 -12 -3 -7 5 -9 2 -5 -9 3 -9 0 -18 -9 -21 -19 -7 -18 -26 1 -26 8 0 15 5 15 10 0 6 6 10 14 10 8 0 18 4 21 10 3 5 0 7 -9 4 -11 -4 -13 0 -9 15 3 12 3 21 -1 21 -3 0 -6 -5 -6 -11z"/>
 <path d="M975 1500 c3 -5 8 -10 11 -10 3 0 2 5 -1 10 -3 6 -8 10 -11 10 -3 0 -2 -4 1 -10z"/>
 <path d="M1404 1068 c-4 -7 -3 -8 4 -4 12 7 16 16 8 16 -3 0 -8 -5 -12 -12z"/>
 <path d="M1426 985 c-3 -9 0 -15 9 -15 9 0 12 6 9 15 -4 8 -7 15 -9 15 -2 0 -5 -7 -9 -15z"/>
 <path d="M1187 1059 c7 -7 15 -10 18 -7 3 3 -2 9 -12 12 -14 6 -15 5 -6 -5z"/>
 </g>
<g id="layer103" fill="#263038" stroke="none">
 <path d="M1517 2509 c7 -7 15 -10 18 -7 3 3 -2 9 -12 12 -14 6 -15 5 -6 -5z"/>
 <path d="M1324 2498 c-4 -7 -3 -8 4 -4 12 7 16 16 8 16 -3 0 -8 -5 -12 -12z"/>
 <path d="M1415 2490 c-3 -6 1 -7 9 -4 18 7 21 14 7 14 -6 0 -13 -4 -16 -10z"/>
 <path d="M1454 2488 c-4 -7 -3 -8 4 -4 12 7 16 16 8 16 -3 0 -8 -5 -12 -12z"/>
 <path d="M1587 2469 c7 -7 15 -10 18 -7 3 3 -2 9 -12 12 -14 6 -15 5 -6 -5z"/>
 <path d="M1364 2458 c-4 -7 -3 -8 4 -4 12 7 16 16 8 16 -3 0 -8 -5 -12 -12z"/>
 <path d="M1255 2450 c3 -5 8 -10 11 -10 3 0 2 5 -1 10 -3 6 -8 10 -11 10 -3 0 -2 -4 1 -10z"/>
 <path d="M1233 2435 c0 -8 4 -12 9 -9 5 3 6 10 3 15 -9 13 -12 11 -12 -6z"/>
 <path d="M1544 2438 c-4 -7 -3 -8 4 -4 12 7 16 16 8 16 -3 0 -8 -5 -12 -12z"/>
 <path d="M1294 2418 c-4 -7 -3 -8 4 -4 12 7 16 16 8 16 -3 0 -8 -5 -12 -12z"/>
 <path d="M1624 2418 c-4 -7 -3 -8 4 -4 12 7 16 16 8 16 -3 0 -8 -5 -12 -12z"/>
 <path d="M1474 2378 c-4 -7 -3 -8 4 -4 12 7 16 16 8 16 -3 0 -8 -5 -12 -12z"/>
 <path d="M1365 2369 c-4 -6 -5 -12 -2 -15 2 -3 7 2 10 11 7 17 1 20 -8 4z"/>
 <path d="M1500 2350 c0 -7 3 -10 7 -7 3 4 3 10 0 14 -4 3 -7 0 -7 -7z"/>
 <path d="M1480 2330 c0 -7 3 -10 7 -7 3 4 3 10 0 14 -4 3 -7 0 -7 -7z"/>
 <path d="M1184 2318 c-4 -7 -3 -8 4 -4 12 7 16 16 8 16 -3 0 -8 -5 -12 -12z"/>
 <path d="M1396 2291 c-15 -16 -15 -19 -1 -31 10 -8 15 -9 15 -1 0 6 -5 11 -12 11 -6 0 -3 9 7 20 10 11 16 20 13 20 -3 0 -12 -8 -22 -19z"/>
 <path d="M1060 2250 c-9 -6 -10 -10 -3 -10 6 0 15 5 18 10 8 12 4 12 -15 0z"/>
 <path d="M1104 2208 c-4 -7 -3 -8 4 -4 12 7 16 16 8 16 -3 0 -8 -5 -12 -12z"/>
 <path d="M1023 2150 c0 -36 2 -50 4 -32 2 17 2 47 0 65 -2 17 -4 3 -4 -33z"/>
 <path d="M1074 2186 c-11 -28 1 -109 16 -113 12 -4 12 -3 1 5 -9 7 -12 27 -10 66 4 57 2 67 -7 42z"/>
 <path d="M1273 2193 c4 -3 10 -3 14 0 3 4 0 7 -7 7 -7 0 -10 -3 -7 -7z"/>
 <path d="M1214 2178 c-4 -7 -3 -8 4 -4 12 7 16 16 8 16 -3 0 -8 -5 -12 -12z"/>
 <path d="M1240 2166 c0 -2 7 -7 16 -10 8 -3 12 -2 9 4 -6 10 -25 14 -25 6z"/>
 <path d="M1200 2130 c0 -7 3 -10 7 -7 3 4 3 10 0 14 -4 3 -7 0 -7 -7z"/>
 <path d="M1258 2108 c-10 -10 -14 -18 -9 -18 10 0 36 29 30 34 -2 1 -12 -6 -21 -16z"/>
 <path d="M1176 2088 c3 -5 10 -6 15 -3 13 9 11 12 -6 12 -8 0 -12 -4 -9 -9z"/>
 <path d="M1003 2073 c4 -3 10 -3 14 0 3 4 0 7 -7 7 -7 0 -10 -3 -7 -7z"/>
 <path d="M1265 2070 c3 -5 8 -10 11 -10 3 0 2 5 -1 10 -3 6 -8 10 -11 10 -3 0 -2 -4 1 -10z"/>
 <path d="M1360 2060 c-9 -6 -10 -10 -3 -10 6 0 15 5 18 10 8 12 4 12 -15 0z"/>
 <path d="M1445 2050 c3 -5 8 -10 11 -10 3 0 2 5 -1 10 -3 6 -8 10 -11 10 -3 0 -2 -4 1 -10z"/>
 <path d="M942 2041 c-11 -7 -11 -9 0 -14 9 -3 15 1 15 9 0 8 -1 14 -1 14 -1 0 -7 -4 -14 -9z"/>
 <path d="M1145 2040 c3 -5 8 -10 11 -10 3 0 2 5 -1 10 -3 6 -8 10 -11 10 -3 0 -2 -4 1 -10z"/>
 <path d="M1034 2028 c-4 -7 -3 -8 4 -4 12 7 16 16 8 16 -3 0 -8 -5 -12 -12z"/>
 <path d="M1403 2033 c4 -3 -1 -12 -11 -20 -15 -13 -15 -13 6 -3 19 9 23 30 5 30 -4 0 -3 -3 0 -7z"/>
 <path d="M1290 2020 c-9 -6 -10 -10 -3 -10 6 0 15 5 18 10 8 12 4 12 -15 0z"/>
 <path d="M1580 2020 c-9 -6 -10 -10 -3 -10 6 0 15 5 18 10 8 12 4 12 -15 0z"/>
 <path d="M905 2010 c3 -5 8 -10 11 -10 3 0 2 5 -1 10 -3 6 -8 10 -11 10 -3 0 -2 -4 1 -10z"/>
 <path d="M865 1997 c-15 -12 -16 -15 -4 -22 8 -5 11 -5 7 0 -4 4 0 14 10 21 23 18 11 18 -13 1z"/>
 <path d="M984 1998 c-4 -7 -3 -8 4 -4 12 7 16 16 8 16 -3 0 -8 -5 -12 -12z"/>
 <path d="M1105 2000 c3 -5 8 -10 11 -10 3 0 2 5 -1 10 -3 6 -8 10 -11 10 -3 0 -2 -4 1 -10z"/>
 <path d="M1215 2000 c3 -5 8 -10 11 -10 3 0 2 5 -1 10 -3 6 -8 10 -11 10 -3 0 -2 -4 1 -10z"/>
 <path d="M1545 1990 c3 -5 8 -10 11 -10 3 0 2 5 -1 10 -3 6 -8 10 -11 10 -3 0 -2 -4 1 -10z"/>
 <path d="M1512 1981 c-11 -7 -11 -9 0 -14 9 -3 15 1 15 9 0 8 -1 14 -1 14 -1 0 -7 -4 -14 -9z"/>
 <path d="M1315 1970 c-3 -6 1 -7 9 -4 18 7 21 14 7 14 -6 0 -13 -4 -16 -10z"/>
 <path d="M914 1958 c-4 -7 -3 -8 4 -4 7 4 12 9 12 12 0 8 -9 4 -16 -8z"/>
 <path d="M1160 1966 c0 -2 7 -7 16 -10 8 -3 12 -2 9 4 -6 10 -25 14 -25 6z"/>
 <path d="M1444 1938 c-4 -7 -3 -8 4 -4 12 7 16 16 8 16 -3 0 -8 -5 -12 -12z"/>
 <path d="M1554 1938 c-4 -7 -3 -8 4 -4 7 4 12 9 12 12 0 8 -9 4 -16 -8z"/>
 <path d="M985 1910 c3 -5 8 -10 11 -10 3 0 2 5 -1 10 -3 6 -8 10 -11 10 -3 0 -2 -4 1 -10z"/>
 <path d="M1483 1905 c0 -7 6 -11 14 -8 7 3 13 6 13 8 0 2 -6 5 -13 8 -8 3 -14 -1 -14 -8z"/>
 <path d="M1420 1900 c0 -7 3 -10 7 -7 3 4 3 10 0 14 -4 3 -7 0 -7 -7z"/>
 <path d="M1010 1871 c0 -6 4 -13 10 -16 6 -3 7 1 4 9 -7 18 -14 21 -14 7z"/>
 <path d="M984 1848 c-4 -7 -3 -8 4 -4 12 7 16 16 8 16 -3 0 -8 -5 -12 -12z"/>
 <path d="M1060 1850 c-9 -6 -10 -10 -3 -10 6 0 15 5 18 10 8 12 4 12 -15 0z"/>
 <path d="M1018 1727 c2 -51 6 -95 10 -99 4 -4 6 34 4 85 -2 51 -6 95 -10 99 -4 4 -6 -34 -4 -85z"/>
 <path d="M1074 1807 c-3 -8 -4 -45 -2 -83 l3 -69 5 83 c5 82 4 94 -6 69z"/>
 <path d="M1395 1800 c-3 -5 -1 -10 4 -10 6 0 11 5 11 10 0 6 -2 10 -4 10 -3 0 -8 -4 -11 -10z"/>
 <path d="M1415 1760 c-3 -6 1 -7 9 -4 18 7 21 14 7 14 -6 0 -13 -4 -16 -10z"/>
 <path d="M1284 1738 c-4 -7 -4 -10 1 -6 4 4 14 0 22 -10 13 -15 13 -15 3 6 -12 25 -16 27 -26 10z"/>
 <path d="M1174 1728 c-4 -7 -4 -10 1 -6 4 4 16 3 26 -3 11 -5 19 -7 19 -5 0 3 -9 10 -19 16 -15 7 -22 7 -27 -2z"/>
 <path d="M1240 1726 c0 -2 7 -7 16 -10 8 -3 12 -2 9 4 -6 10 -25 14 -25 6z"/>
 <path d="M1384 1718 c-4 -7 -3 -8 4 -4 12 7 16 16 8 16 -3 0 -8 -5 -12 -12z"/>
 <path d="M1500 1710 c0 -7 3 -10 7 -7 3 4 3 10 0 14 -4 3 -7 0 -7 -7z"/>
 <path d="M1361 1703 c-1 -17 16 -25 25 -12 4 7 3 9 -4 5 -5 -3 -13 0 -15 6 -4 9 -6 10 -6 1z"/>
 <path d="M1200 1690 c0 -7 3 -10 7 -7 3 4 3 10 0 14 -4 3 -7 0 -7 -7z"/>
 <path d="M1475 1680 c3 -5 8 -10 11 -10 3 0 2 5 -1 10 -3 6 -8 10 -11 10 -3 0 -2 -4 1 -10z"/>
 <path d="M1250 1660 c-9 -6 -10 -10 -3 -10 6 0 15 5 18 10 8 12 4 12 -15 0z"/>
 <path d="M1175 1650 c3 -5 8 -10 11 -10 3 0 2 5 -1 10 -3 6 -8 10 -11 10 -3 0 -2 -4 1 -10z"/>
 <path d="M1115 1640 c3 -5 8 -10 11 -10 3 0 2 5 -1 10 -3 6 -8 10 -11 10 -3 0 -2 -4 1 -10z"/>
 <path d="M1285 1640 c3 -5 8 -10 11 -10 3 0 2 5 -1 10 -3 6 -8 10 -11 10 -3 0 -2 -4 1 -10z"/>
 <path d="M1167 1609 c7 -7 15 -10 18 -7 3 3 -2 9 -12 12 -14 6 -15 5 -6 -5z"/>
 <path d="M1060 1606 c0 -2 7 -7 16 -10 8 -3 12 -2 9 4 -6 10 -25 14 -25 6z"/>
 <path d="M1204 1578 c-4 -7 -3 -8 4 -4 7 4 12 9 12 12 0 8 -9 4 -16 -8z"/>
 <path d="M972 1567 c10 -8 14 -18 10 -22 -4 -5 -1 -5 6 -1 17 10 15 14 -10 26 -21 10 -21 10 -6 -3z"/>
 <path d="M1233 1565 c0 -7 6 -11 14 -8 7 3 13 6 13 8 0 2 -6 5 -13 8 -8 3 -14 -1 -14 -8z"/>
 <path d="M1130 1566 c0 -2 7 -7 16 -10 8 -3 12 -2 9 4 -6 10 -25 14 -25 6z"/>
 <path d="M880 1550 c0 -7 3 -10 7 -7 3 4 3 10 0 14 -4 3 -7 0 -7 -7z"/>
 <path d="M904 1548 c-4 -7 -3 -8 4 -4 12 7 16 16 8 16 -3 0 -8 -5 -12 -12z"/>
 <path d="M1014 1548 c-4 -7 -3 -8 4 -4 12 7 16 16 8 16 -3 0 -8 -5 -12 -12z"/>
 <path d="M1090 1553 c5 -2 8 -9 5 -13 -3 -5 -1 -11 4 -14 5 -4 8 2 7 11 -2 9 -8 18 -15 19 -6 1 -7 0 -1 -3z"/>
 <path d="M1460 1550 c0 -7 3 -10 7 -7 3 4 3 10 0 14 -4 3 -7 0 -7 -7z"/>
 <path d="M1473 1515 c0 -8 4 -12 9 -9 5 3 6 10 3 15 -9 13 -12 11 -12 -6z"/>
 <path d="M1320 1510 c0 -7 3 -10 7 -7 3 4 3 10 0 14 -4 3 -7 0 -7 -7z"/>
 <path d="M1356 1512 c-3 -4 4 -9 15 -9 23 -2 25 3 4 10 -8 4 -16 3 -19 -1z"/>
 <path d="M1025 1499 c-4 -6 -5 -12 -2 -15 2 -3 7 2 10 11 7 17 1 20 -8 4z"/>
 <path d="M1527 1489 c7 -7 15 -10 18 -7 3 3 -2 9 -12 12 -14 6 -15 5 -6 -5z"/>
 <path d="M1378 1463 c6 -2 18 -2 25 0 6 3 1 5 -13 5 -14 0 -19 -2 -12 -5z"/>
 <path d="M1564 1458 c-4 -7 -3 -8 4 -4 12 7 16 16 8 16 -3 0 -8 -5 -12 -12z"/>
 <path d="M1004 1438 c-4 -7 -3 -8 4 -4 7 4 12 9 12 12 0 8 -9 4 -16 -8z"/>
 <path d="M1105 1440 c3 -5 8 -10 11 -10 3 0 2 5 -1 10 -3 6 -8 10 -11 10 -3 0 -2 -4 1 -10z"/>
 <path d="M1490 1446 c0 -2 7 -7 16 -10 8 -3 12 -2 9 4 -6 10 -25 14 -25 6z"/>
 <path d="M884 1428 c-4 -7 -3 -8 4 -4 12 7 16 16 8 16 -3 0 -8 -5 -12 -12z"/>
 <path d="M1264 1428 c-4 -7 -3 -8 4 -4 12 7 16 16 8 16 -3 0 -8 -5 -12 -12z"/>
 <path d="M915 1420 c3 -5 8 -10 11 -10 3 0 2 5 -1 10 -3 6 -8 10 -11 10 -3 0 -2 -4 1 -10z"/>
 <path d="M1165 1417 c-15 -12 -16 -15 -4 -22 8 -5 11 -5 7 0 -4 4 0 14 10 21 23 18 11 18 -13 1z"/>
 <path d="M1073 1413 c4 -3 10 -3 14 0 3 4 0 7 -7 7 -7 0 -10 -3 -7 -7z"/>
 <path d="M1572 1411 c-11 -7 -11 -9 0 -14 9 -3 15 1 15 9 0 8 -1 14 -1 14 -1 0 -7 -4 -14 -9z"/>
 <path d="M954 1388 c-4 -7 -3 -8 4 -4 12 7 16 16 8 16 -3 0 -8 -5 -12 -12z"/>
 <path d="M860 1386 c0 -2 7 -7 16 -10 8 -3 12 -2 9 4 -6 10 -25 14 -25 6z"/>
 <path d="M1100 1380 c-9 -6 -10 -10 -3 -10 6 0 15 5 18 10 8 12 4 12 -15 0z"/>
 <path d="M1354 1378 c-4 -7 -3 -8 4 -4 12 7 16 16 8 16 -3 0 -8 -5 -12 -12z"/>
 <path d="M904 1368 c-4 -7 -3 -8 4 -4 12 7 16 16 8 16 -3 0 -8 -5 -12 -12z"/>
 <path d="M1387 1369 c7 -7 15 -10 18 -7 3 3 -2 9 -12 12 -14 6 -15 5 -6 -5z"/>
 <path d="M1280 1366 c0 -2 7 -7 16 -10 8 -3 12 -2 9 4 -6 10 -25 14 -25 6z"/>
 <path d="M1030 1353 c0 -1 8 -7 18 -12 13 -7 19 -6 19 2 0 7 -9 13 -19 13 -10 0 -18 -1 -18 -3z"/>
 <path d="M1324 1348 c-4 -7 -3 -8 4 -4 12 7 16 16 8 16 -3 0 -8 -5 -12 -12z"/>
 <path d="M930 1346 c0 -2 7 -7 16 -10 8 -3 12 -2 9 4 -6 10 -25 14 -25 6z"/>
 <path d="M1144 1338 c-4 -7 -3 -8 4 -4 7 4 12 9 12 12 0 8 -9 4 -16 -8z"/>
 <path d="M1264 1308 c-4 -7 -3 -8 4 -4 12 7 16 16 8 16 -3 0 -8 -5 -12 -12z"/>
 <path d="M1003 1303 c4 -3 10 -3 14 0 3 4 0 7 -7 7 -7 0 -10 -3 -7 -7z"/>
 <path d="M1083 1303 c4 -3 10 -3 14 0 3 4 0 7 -7 7 -7 0 -10 -3 -7 -7z"/>
 <path d="M1233 1303 c4 -3 10 -3 14 0 3 4 0 7 -7 7 -7 0 -10 -3 -7 -7z"/>
 <path d="M1174 1288 c-4 -7 -3 -8 4 -4 7 4 12 9 12 12 0 8 -9 4 -16 -8z"/>
 <path d="M1023 1230 c0 -36 2 -50 4 -32 2 17 2 47 0 65 -2 17 -4 3 -4 -33z"/>
 <path d="M1071 1243 c0 -28 2 -54 7 -57 4 -2 6 14 4 37 -5 68 -10 76 -11 20z"/>
 <path d="M1296 1282 c-3 -5 1 -9 9 -9 8 0 12 4 9 9 -3 4 -7 8 -9 8 -2 0 -6 -4 -9 -8z"/>
 <path d="M1266 1267 c3 -10 9 -15 12 -12 3 3 0 11 -7 18 -10 9 -11 8 -5 -6z"/>
 <path d="M1200 1250 c0 -7 3 -10 7 -7 3 4 3 10 0 14 -4 3 -7 0 -7 -7z"/>
 <path d="M1176 1223 c-6 -14 -5 -15 5 -6 7 7 10 15 7 18 -3 3 -9 -2 -12 -12z"/>
 <path d="M1250 1220 c-9 -6 -10 -10 -3 -10 6 0 15 5 18 10 8 12 4 12 -15 0z"/>
 <path d="M1295 1210 c3 -5 8 -10 11 -10 3 0 2 5 -1 10 -3 6 -8 10 -11 10 -3 0 -2 -4 1 -10z"/>
 <path d="M1273 1183 c4 -3 10 -3 14 0 3 4 0 7 -7 7 -7 0 -10 -3 -7 -7z"/>
 <path d="M1105 1170 c3 -5 8 -10 11 -10 3 0 2 5 -1 10 -3 6 -8 10 -11 10 -3 0 -2 -4 1 -10z"/>
 <path d="M1045 1151 c-3 -6 5 -15 17 -21 21 -10 21 -10 6 3 -10 8 -15 17 -11 20 3 4 4 7 0 7 -3 0 -8 -4 -12 -9z"/>
 <path d="M1094 1118 c-4 -7 -3 -8 4 -4 12 7 16 16 8 16 -3 0 -8 -5 -12 -12z"/>
 <path d="M1174 1118 c-4 -7 -3 -8 4 -4 7 4 12 9 12 12 0 8 -9 4 -16 -8z"/>
 <path d="M1395 1120 c-3 -5 -1 -10 4 -10 6 0 11 5 11 10 0 6 -2 10 -4 10 -3 0 -8 -4 -11 -10z"/>
 <path d="M1454 1108 c-4 -7 -3 -8 4 -4 12 7 16 16 8 16 -3 0 -8 -5 -12 -12z"/>
 <path d="M1132 1101 c-11 -7 -11 -9 0 -14 9 -3 15 1 15 9 0 8 -1 14 -1 14 -1 0 -7 -4 -14 -9z"/>
 <path d="M1400 1030 c0 -7 3 -10 7 -7 3 4 3 10 0 14 -4 3 -7 0 -7 -7z"/>
 <path d="M1500 1030 c0 -7 3 -10 7 -7 3 4 3 10 0 14 -4 3 -7 0 -7 -7z"/>
 <path d="M1360 1024 c0 -6 9 -19 19 -28 14 -13 21 -14 27 -5 4 7 3 10 -4 5 -6 -3 -18 4 -26 16 -9 12 -16 18 -16 12z"/>
 <path d="M1485 1010 c3 -5 8 -10 11 -10 3 0 2 5 -1 10 -3 6 -8 10 -11 10 -3 0 -2 -4 1 -10z"/>
 <path d="M1465 990 c3 -5 8 -10 11 -10 3 0 2 5 -1 10 -3 6 -8 10 -11 10 -3 0 -2 -4 1 -10z"/>
 <path d="M1264 968 c-4 -7 -3 -8 4 -4 7 4 12 9 12 12 0 8 -9 4 -16 -8z"/>
 <path d="M1293 955 c0 -7 6 -11 14 -8 7 3 13 6 13 8 0 2 -6 5 -13 8 -8 3 -14 -1 -14 -8z"/>
 <path d="M1545 951 c-3 -5 -2 -12 3 -15 5 -3 9 1 9 9 0 17 -3 19 -12 6z"/>
 <path d="M1334 928 c-4 -7 -3 -8 4 -4 12 7 16 16 8 16 -3 0 -8 -5 -12 -12z"/>
 <path d="M1525 930 c3 -5 8 -10 11 -10 3 0 2 5 -1 10 -3 6 -8 10 -11 10 -3 0 -2 -4 1 -10z"/>
 <path d="M1365 920 c3 -5 8 -10 11 -10 3 0 2 5 -1 10 -3 6 -8 10 -11 10 -3 0 -2 -4 1 -10z"/>
 <path d="M1485 917 c-15 -12 -16 -15 -4 -22 8 -5 11 -5 7 0 -4 4 0 14 10 21 23 18 11 18 -13 1z"/>
 <path d="M1585 910 c-3 -6 1 -7 9 -4 18 7 21 14 7 14 -6 0 -13 -4 -16 -10z"/>
 <path d="M1417 889 c7 -7 15 -10 18 -7 3 3 -2 9 -12 12 -14 6 -15 5 -6 -5z"/>
 <path d="M1533 893 c4 -3 -1 -12 -11 -20 -15 -13 -15 -13 6 -3 19 9 23 30 5 30 -4 0 -3 -3 0 -7z"/>
 <path d="M1310 886 c0 -2 7 -7 16 -10 8 -3 12 -2 9 4 -6 10 -25 14 -25 6z"/>
 <path d="M1465 850 c3 -5 8 -10 11 -10 3 0 2 5 -1 10 -3 6 -8 10 -11 10 -3 0 -2 -4 1 -10z"/>
 <path d="M1380 846 c0 -2 7 -7 16 -10 8 -3 12 -2 9 4 -6 10 -25 14 -25 6z"/>
 </g>
<g id="layer104" fill="#269ebe" stroke="none">
 <path d="M1917 2543 c-16 -8 -27 -17 -24 -20 3 -2 16 2 29 11 22 15 27 14 81 -19 32 -19 60 -35 63 -35 2 0 22 -11 44 -25 37 -23 40 -29 40 -71 0 -27 4 -43 10 -39 6 3 10 25 10 48 0 38 -4 44 -38 62 -20 12 -71 39 -112 62 -72 40 -76 41 -103 26z"/>
 <path d="M1793 2473 l-73 -45 0 -738 0 -738 37 -24 c45 -28 56 -34 131 -74 64 -35 66 -35 162 24 19 12 54 32 78 44 41 21 42 24 42 70 0 26 -4 48 -10 48 -5 0 -10 -21 -10 -47 l0 -48 -78 -40 c-42 -22 -88 -48 -101 -57 -23 -18 -25 -17 -60 3 -20 12 -52 31 -71 41 -19 11 -50 29 -67 40 l-33 20 0 738 0 738 70 41 c64 38 82 53 63 50 -5 -1 -41 -21 -80 -46z"/>
 <path d="M1858 2459 l-88 -51 0 -211 0 -212 53 -28 c52 -28 52 -28 22 -3 -16 14 -36 26 -42 26 -21 0 -24 36 -21 235 l3 189 40 21 c22 11 42 22 45 25 3 3 21 15 40 26 39 22 40 22 128 -34 28 -19 57 -32 64 -29 7 2 -12 16 -42 32 -30 15 -67 36 -82 46 -14 11 -28 19 -30 19 -1 0 -42 -23 -90 -51z"/>
 <path d="M1895 2385 c-14 -13 -25 -35 -25 -47 0 -26 25 -68 41 -68 5 0 0 9 -11 20 -39 39 -12 100 44 100 37 0 62 -22 69 -60 4 -21 4 -21 6 7 1 24 -6 36 -28 52 -38 28 -66 26 -96 -4z"/>
 <path d="M2112 2304 c-2 -93 -4 -102 -27 -124 -26 -25 -32 -40 -15 -40 6 0 10 5 10 12 0 6 9 21 20 33 19 20 20 33 17 121 l-3 99 -2 -101z"/>
 <path d="M1917 2362 c-20 -22 -22 -43 -5 -60 19 -19 33 -14 15 6 -22 24 -21 27 5 52 12 11 17 20 11 20 -5 0 -17 -8 -26 -18z"/>
 <path d="M1971 2346 c10 -20 9 -29 -2 -43 -13 -17 -12 -17 4 -4 20 16 20 62 -1 69 -10 3 -10 -2 -1 -22z"/>
 <path d="M2170 2326 c0 -8 82 -57 88 -52 3 3 3 7 1 9 -10 8 -89 46 -89 43z"/>
 <path d="M1989 2283 c-13 -16 -12 -17 4 -4 9 7 17 15 17 17 0 8 -8 3 -21 -13z"/>
 <path d="M2180 2261 c0 -6 6 -11 13 -11 7 0 28 -10 47 -23 42 -28 74 -41 65 -27 -4 6 -30 23 -58 38 -69 36 -67 35 -67 23z"/>
 <path d="M2284 2258 c58 -41 65 -49 69 -91 3 -42 4 -42 5 8 2 49 1 51 -35 70 -48 24 -63 29 -39 13z"/>
 <path d="M1922 2154 c-2 -108 -1 -112 21 -117 20 -5 20 -5 5 7 -14 10 -18 33 -21 117 l-3 104 -2 -111z"/>
 <path d="M1960 2172 l0 -91 53 -33 c73 -46 124 -71 134 -67 5 2 44 24 86 49 65 38 77 49 76 70 -2 23 -2 23 -6 3 -4 -21 -24 -36 -106 -82 -50 -28 -66 -27 -129 9 -29 17 -60 34 -68 39 -11 6 -16 30 -18 92 -4 118 -22 127 -22 11z"/>
 <path d="M2150 2235 c0 -15 4 -24 10 -20 6 3 10 12 10 20 0 8 -4 17 -10 20 -6 4 -10 -5 -10 -20z"/>
 <path d="M2178 2180 c47 -44 15 -114 -49 -108 -26 2 -37 10 -48 33 -10 20 -16 25 -19 16 -6 -18 52 -71 78 -71 23 0 66 38 74 65 7 23 -27 85 -46 85 -6 0 -2 -9 10 -20z"/>
 <path d="M2152 2159 c23 -17 26 -24 18 -40 -11 -20 -50 -27 -50 -8 0 5 -5 7 -10 4 -17 -11 -1 -25 28 -25 36 0 59 34 40 58 -17 22 -30 32 -43 32 -5 -1 2 -10 17 -21z"/>
 <path d="M2302 2160 c0 -14 2 -19 5 -12 2 6 2 18 0 25 -3 6 -5 1 -5 -13z"/>
 <path d="M2102 2158 c-7 -7 -12 -19 -12 -27 0 -14 15 -7 15 7 0 4 4 13 8 20 10 15 5 16 -11 0z"/>
 <path d="M2350 2093 c0 -17 19 -31 103 -78 l88 -49 -1 -277 -1 -276 -27 -14 c-15 -8 -51 -28 -80 -46 -30 -18 -59 -34 -66 -36 -6 -2 -8 -8 -4 -12 4 -4 13 -3 20 3 7 5 40 25 73 42 104 56 95 25 95 341 l0 279 -37 23 c-21 12 -55 31 -76 42 -20 11 -48 30 -62 43 -14 12 -25 19 -25 15z"/>
 <path d="M2248 1999 c-38 -22 -68 -42 -68 -45 0 -6 102 47 110 57 23 26 58 16 153 -44 45 -29 47 -32 47 -78 0 -26 5 -51 10 -54 6 -4 10 14 10 48 0 55 -7 67 -55 93 -11 6 -42 23 -68 37 -26 15 -53 27 -60 27 -7 0 -42 -18 -79 -41z"/>
 <path d="M1973 2023 c9 -15 118 -76 124 -69 3 2 -6 10 -19 17 -12 6 -43 23 -67 37 -25 15 -42 21 -38 15z"/>
 <path d="M2288 1963 c-25 -6 -52 -53 -39 -66 8 -8 11 -5 11 10 0 12 9 28 21 37 39 27 99 0 99 -46 0 -15 24 -35 90 -73 13 -8 13 -7 1 8 -8 10 -29 25 -47 33 -19 9 -31 20 -28 25 6 10 -9 41 -32 63 -15 15 -41 19 -76 9z"/>
 <path d="M2112 1889 c-2 -66 -2 -66 33 -85 48 -26 55 -47 12 -39 -44 9 -97 -33 -97 -74 0 -28 34 -70 47 -58 3 4 2 7 -4 7 -19 0 -32 55 -19 81 15 30 75 38 100 14 24 -24 20 -68 -9 -95 -24 -23 -26 -29 -23 -113 l3 -90 89 -53 88 -54 28 20 c16 11 31 20 34 20 3 0 30 16 61 35 l55 36 0 161 c0 210 -18 200 -22 -12 l-3 -154 -77 -43 -77 -44 -38 21 c-21 11 -56 30 -78 43 l-40 24 -3 88 c-2 75 0 91 16 109 29 32 33 55 16 88 -13 25 -13 32 -3 39 8 4 19 3 26 -3 8 -6 16 -8 19 -5 3 3 -24 22 -60 42 l-65 36 -4 62 -3 62 -2 -66z"/>
 <path d="M2285 1920 c-15 -17 -16 -24 -7 -46 16 -33 61 -30 79 6 10 20 9 27 -4 42 -21 24 -46 23 -68 -2z m60 -10 c7 -22 -4 -50 -19 -50 -17 1 -42 23 -41 38 0 29 51 39 60 12z"/>
 <path d="M1822 1905 c20 -14 41 -25 46 -25 14 0 42 -35 42 -52 0 -25 44 -58 78 -58 40 0 72 33 72 75 0 30 -25 65 -45 65 -5 0 -1 -6 8 -12 9 -7 20 -27 23 -44 16 -80 -104 -104 -121 -24 -5 23 -20 38 -66 65 -70 41 -90 46 -37 10z"/>
 <path d="M2150 1895 c0 -22 4 -34 10 -30 6 3 10 17 10 30 0 13 -4 27 -10 30 -6 4 -10 -8 -10 -30z"/>
 <path d="M1770 1672 c0 -144 4 -253 9 -257 5 -3 31 7 58 23 26 15 57 32 68 36 14 6 16 10 7 13 -7 3 -21 -1 -30 -9 -31 -24 -77 -45 -90 -41 -10 4 -12 57 -12 240 1 129 -1 238 -4 241 -3 3 -6 -108 -6 -246z m27 -249 c-4 -3 -10 -3 -14 0 -3 4 0 7 7 7 7 0 10 -3 7 -7z"/>
 <path d="M1900 1915 c0 -2 9 -9 19 -15 14 -7 29 -6 53 5 24 10 28 14 13 15 -12 0 -26 -5 -33 -12 -9 -9 -15 -9 -24 0 -12 12 -28 16 -28 7z"/>
 <path d="M1957 1872 c-30 -33 -15 -72 28 -72 27 0 45 18 44 45 0 19 -1 19 -9 -2 -11 -27 -49 -40 -61 -22 -17 27 0 52 36 52 19 0 23 2 14 8 -21 13 -34 11 -52 -9z"/>
 <path d="M2250 1869 c1 -32 25 -46 75 -45 38 1 63 -6 103 -27 75 -40 74 -28 -1 15 -45 26 -67 33 -79 27 -29 -16 -56 -10 -77 17 -12 15 -21 20 -21 13z"/>
 <path d="M2180 1839 c8 -6 50 -30 93 -55 l77 -45 0 -87 c0 -75 3 -90 20 -105 20 -17 26 -61 12 -85 -14 -22 -76 -26 -95 -7 -20 19 -22 72 -4 95 6 9 2 5 -10 -8 -31 -32 -29 -59 8 -93 39 -37 63 -37 100 0 36 36 37 60 4 99 -22 27 -25 39 -25 116 l0 86 -37 20 c-115 63 -148 80 -153 79 -3 0 2 -5 10 -10z"/>
 <path d="M2278 1731 c12 -10 22 -24 22 -31 0 -6 5 -8 10 -5 13 8 -4 32 -34 46 -19 9 -19 9 2 -10z"/>
 <path d="M1895 1705 c-14 -13 -25 -32 -25 -42 0 -32 12 -61 25 -67 10 -3 9 2 -2 23 -14 23 -14 31 -2 56 11 23 22 31 48 33 61 6 90 -46 54 -98 l-17 -25 22 19 c45 39 9 126 -53 126 -14 0 -37 -11 -50 -25z"/>
 <path d="M2100 1710 c-10 -19 1 -60 16 -60 2 0 0 9 -6 21 -14 26 4 51 34 47 27 -4 33 -38 10 -55 -16 -12 -16 -13 -1 -13 9 0 21 9 27 19 13 25 13 27 -6 45 -22 22 -61 20 -74 -4z"/>
 <path d="M1915 1680 c-15 -17 -16 -24 -7 -45 6 -14 17 -25 23 -25 8 0 7 6 -3 18 -23 28 -17 47 17 47 36 0 47 -31 19 -52 -10 -7 -13 -13 -8 -13 32 0 44 49 18 74 -21 21 -37 20 -59 -4z"/>
 <path d="M2300 1650 c0 -7 3 -10 7 -7 3 4 3 10 0 14 -4 3 -7 0 -7 -7z"/>
 <path d="M2114 1530 c0 -52 1 -74 3 -47 2 26 2 68 0 95 -2 26 -3 4 -3 -48z"/>
 <path d="M1923 1545 c0 -27 2 -38 4 -22 2 15 2 37 0 50 -2 12 -4 0 -4 -28z"/>
 <path d="M1960 1527 c0 -60 0 -61 -81 -105 -32 -16 -69 -38 -83 -47 l-26 -17 2 -192 2 -191 6 190 5 189 97 56 97 55 1 52 c0 28 -4 55 -10 58 -6 4 -10 -14 -10 -48z"/>
 <path d="M2296 1529 c-8 -12 -12 -29 -8 -38 6 -14 7 -13 10 3 2 11 14 28 26 37 18 16 18 18 4 19 -9 0 -24 -10 -32 -21z"/>
 <path d="M2355 1525 c4 -11 8 -25 8 -32 0 -7 4 -10 9 -7 12 8 10 18 -8 40 -15 19 -16 19 -9 -1z"/>
 <path d="M2319 1457 c5 -5 17 -5 28 2 16 9 15 10 -9 9 -16 -2 -24 -6 -19 -11z"/>
 <path d="M2020 1389 c-36 -21 -73 -42 -82 -45 -16 -6 -18 -20 -18 -113 0 -102 -1 -108 -25 -129 -16 -14 -25 -32 -25 -52 0 -30 29 -70 51 -70 6 0 1 8 -12 18 -30 25 -30 75 -1 103 20 18 22 30 22 122 l0 102 85 49 c47 26 85 50 85 52 0 9 -19 1 -80 -37z"/>
 <path d="M2053 1357 c-40 -23 -70 -43 -68 -45 1 -2 38 15 80 37 l77 41 31 -17 c18 -10 34 -21 37 -24 7 -9 67 -39 77 -39 4 0 -1 8 -12 16 -25 20 -132 74 -142 73 -4 -1 -40 -19 -80 -42z"/>
 <path d="M2091 1304 c-30 -25 -40 -44 -23 -44 5 0 14 11 20 25 9 19 19 25 45 25 59 0 88 -60 50 -103 -14 -16 -15 -19 -3 -15 8 2 21 16 28 31 11 22 10 31 -3 56 -28 56 -68 64 -114 25z"/>
 <path d="M1960 1210 c0 -58 4 -89 10 -85 6 3 10 42 10 85 0 43 -4 82 -10 85 -6 4 -10 -27 -10 -85z"/>
 <path d="M2100 1275 c-27 -33 25 -87 61 -64 10 6 7 9 -11 9 -36 0 -51 17 -40 46 11 28 8 30 -10 9z"/>
 <path d="M2157 1275 c14 -10 20 -22 17 -33 -5 -14 -4 -14 4 -3 12 17 -6 51 -28 51 -10 0 -7 -5 7 -15z"/>
 <path d="M2352 1260 c0 -19 2 -27 5 -17 2 9 2 25 0 35 -3 9 -5 1 -5 -18z"/>
 <path d="M2303 1235 c0 -22 2 -30 4 -17 2 12 2 30 0 40 -3 9 -5 -1 -4 -23z"/>
 <path d="M2070 1221 c0 -4 9 -16 20 -26 19 -17 20 -29 18 -118 l-3 -100 -40 -24 c-22 -12 -55 -30 -73 -39 -18 -9 -35 -20 -38 -25 -3 -5 -17 -1 -32 9 -27 19 -62 34 -62 28 0 -2 21 -16 46 -31 42 -25 47 -25 63 -11 10 9 20 16 23 16 3 0 32 16 64 35 l59 36 5 102 c5 101 5 102 -22 129 -16 15 -28 23 -28 19z"/>
 <path d="M2349 1190 c-7 -35 -4 -48 7 -38 3 4 4 21 2 40 l-3 33 -6 -35z"/>
 <path d="M2270 1170 c-19 -11 -47 -25 -62 -31 -23 -9 -39 -29 -24 -29 8 0 126 71 126 75 0 8 -3 6 -40 -15z"/>
 <path d="M2150 1145 c0 -15 4 -24 10 -20 6 3 10 12 10 20 0 8 -4 17 -10 20 -6 4 -10 -5 -10 -20z"/>
 <path d="M2242 1103 c-40 -25 -71 -47 -69 -50 5 -4 129 69 152 89 24 21 -17 2 -83 -39z"/>
 <path d="M1993 1089 c10 -13 17 -33 17 -45 0 -25 -29 -54 -55 -54 -14 0 -16 -3 -8 -11 17 -17 61 14 69 48 8 31 -5 75 -25 81 -11 4 -10 -1 2 -19z"/>
 <path d="M1908 1065 c-9 -21 -8 -28 7 -45 10 -11 23 -20 29 -20 6 0 4 6 -6 13 -16 13 -22 29 -19 55 1 17 36 15 52 -4 11 -13 10 -19 -1 -37 -12 -20 -12 -21 3 -8 33 27 14 71 -30 71 -15 0 -27 -9 -35 -25z"/>
 <path d="M1781 966 c10 -9 69 -36 69 -32 0 6 -55 36 -66 36 -4 0 -5 -2 -3 -4z"/>
 </g>
<g id="layer105" fill="#1ea8cf" stroke="none">
 <path d="M1937 2547 c4 -6 0 -8 -10 -4 -10 4 -16 2 -14 -6 1 -7 -5 -12 -13 -12 -8 0 -20 -6 -26 -14 -6 -8 -16 -11 -23 -7 -7 5 -10 2 -9 -6 2 -7 -5 -12 -14 -12 -10 1 -15 -3 -11 -9 4 -6 0 -8 -11 -4 -10 4 -15 3 -11 -3 7 -11 -32 -33 -45 -25 -6 4 -10 -267 -10 -753 0 -715 1 -760 18 -758 9 0 16 -5 14 -12 -1 -8 2 -11 7 -8 14 9 42 -5 34 -17 -3 -5 -2 -8 3 -5 15 9 56 -11 48 -23 -4 -8 -3 -9 4 -5 14 8 55 -18 45 -28 -4 -4 1 -4 11 0 12 5 17 4 13 -3 -3 -5 0 -10 8 -10 8 0 11 5 8 10 -4 6 1 8 11 4 9 -4 15 -3 12 2 -8 13 20 33 48 35 13 0 22 4 20 8 -7 11 35 30 48 22 7 -5 8 -3 3 6 -6 10 -4 12 9 7 11 -5 15 -3 10 5 -5 8 -2 9 10 5 10 -4 15 -3 11 3 -3 6 -1 10 4 10 6 0 11 20 11 45 0 48 12 67 62 99 15 10 32 15 38 11 6 -4 9 -1 8 7 -2 7 5 12 14 12 10 -1 15 3 11 9 -4 6 0 8 10 4 10 -4 16 -2 14 6 -1 7 6 11 15 11 18 -2 34 47 30 91 -5 46 9 82 34 94 14 6 31 8 37 5 7 -4 9 -4 5 1 -13 14 96 79 115 69 8 -5 9 -3 2 4 -6 7 -8 111 -5 290 4 244 3 279 -10 278 -8 -1 -14 4 -13 11 2 8 -4 10 -14 6 -11 -4 -14 -3 -9 5 4 7 2 10 -6 7 -8 -3 -22 2 -33 11 -11 8 -14 12 -6 8 9 -4 12 -3 7 4 -4 6 -14 8 -23 5 -11 -4 -14 -3 -9 5 5 8 1 10 -10 5 -12 -4 -15 -3 -10 5 4 7 2 10 -6 7 -28 -10 -41 13 -45 81 -2 40 -10 75 -19 85 -8 8 -11 19 -7 23 4 4 0 4 -9 1 -10 -4 -24 1 -36 13 -11 11 -23 18 -26 15 -7 -7 -47 22 -41 30 3 4 2 5 -1 2 -11 -8 -44 15 -44 31 0 8 -4 12 -10 9 -6 -4 -10 11 -10 39 0 33 -5 48 -20 59 -11 8 -17 17 -12 22 4 5 2 5 -4 2 -15 -9 -76 22 -69 34 4 5 -2 6 -11 2 -11 -4 -15 -2 -11 4 4 6 -1 10 -11 9 -9 0 -16 4 -15 11 2 8 -4 10 -14 6 -11 -4 -14 -3 -9 5 5 8 1 10 -10 5 -10 -4 -15 -2 -11 4 3 5 0 10 -8 10 -8 0 -11 -5 -8 -10z m35 -51 c10 -7 14 -16 10 -20 -4 -4 -2 -7 3 -6 22 5 36 -1 29 -12 -4 -7 -3 -8 4 -4 15 9 95 -32 87 -44 -4 -6 -1 -10 5 -10 7 0 10 -33 8 -102 -2 -57 -6 -101 -9 -98 -12 10 -37 -21 -32 -40 3 -12 0 -20 -7 -20 -10 0 -10 -3 -1 -14 7 -8 11 -23 9 -32 -5 -27 81 -33 104 -7 13 15 33 91 20 79 -9 -10 -40 28 -34 42 3 10 1 13 -6 8 -8 -5 -12 2 -12 19 0 17 4 24 11 19 6 -3 15 -1 19 6 4 7 13 9 19 6 6 -4 9 -12 6 -17 -3 -5 2 -6 11 -2 13 5 15 3 9 -7 -5 -9 -4 -11 3 -6 13 8 67 -17 78 -35 5 -8 3 -9 -7 -4 -11 7 -12 6 -3 -6 6 -8 12 -38 12 -67 1 -46 -1 -53 -16 -47 -9 3 -13 3 -9 -1 10 -10 -31 -36 -45 -28 -7 4 -8 3 -4 -4 7 -11 -6 -17 -27 -13 -5 1 -6 -3 -3 -8 7 -11 -22 -23 -36 -14 -7 3 -8 1 -4 -6 4 -6 0 -14 -8 -17 -26 -10 -163 65 -149 81 5 4 2 5 -5 1 -30 -17 -42 14 -42 106 0 49 4 87 9 84 4 -3 17 4 27 17 13 14 14 18 4 12 -14 -9 -14 -9 0 5 17 17 15 58 -6 81 -8 9 -12 18 -10 20 3 2 -13 3 -34 1 -22 -2 -44 -10 -50 -17 -16 -19 -31 -77 -19 -69 6 3 9 -2 7 -12 -2 -13 2 -18 14 -16 13 2 16 -2 11 -14 -4 -12 -3 -15 5 -10 9 5 12 -19 12 -93 0 -91 2 -103 23 -123 12 -13 26 -22 30 -20 14 4 66 -31 60 -41 -3 -6 -1 -7 5 -3 16 10 54 -12 46 -26 -5 -7 -1 -9 9 -5 15 5 17 -2 18 -56 1 -34 1 -66 0 -70 -1 -5 3 -6 8 -2 14 8 73 -24 66 -35 -4 -6 1 -7 11 -3 11 4 15 2 11 -4 -4 -6 1 -10 11 -9 9 0 16 -5 14 -11 -2 -12 11 -18 32 -14 16 3 46 -32 37 -43 -5 -6 -8 -32 -7 -59 1 -51 -9 -91 -22 -83 -16 9 -14 -81 2 -97 8 -8 13 -17 10 -20 -3 -3 14 -1 37 4 52 12 60 22 56 75 -1 29 -6 41 -17 40 -12 -1 -16 17 -18 91 -2 81 -5 94 -23 103 -11 6 -17 15 -14 20 4 6 -1 7 -11 3 -13 -5 -15 -3 -9 7 5 9 4 11 -3 6 -15 -9 -54 12 -47 24 4 6 -1 7 -11 3 -12 -4 -15 -3 -10 5 5 8 1 10 -10 5 -11 -4 -15 -2 -11 4 4 6 -1 10 -10 9 -10 0 -18 6 -18 14 -1 8 -6 14 -13 12 -8 -1 -12 11 -12 34 0 24 4 33 12 28 8 -5 9 -2 5 10 -4 9 -3 15 2 12 5 -3 12 1 15 10 4 9 13 14 22 10 8 -3 12 -2 9 4 -7 11 32 33 45 25 6 -4 9 -1 8 7 -2 7 5 12 14 12 10 -1 16 2 13 6 -3 5 4 12 15 15 24 8 93 -21 85 -35 -4 -6 2 -7 11 -3 13 5 15 3 9 -7 -5 -8 -4 -11 3 -6 6 4 21 1 34 -6 52 -29 58 -39 58 -94 0 -48 -2 -52 -22 -46 -16 4 -19 2 -13 -8 5 -8 -4 -6 -23 5 -17 10 -29 22 -26 27 3 4 -1 5 -9 2 -19 -7 -37 17 -40 53 -1 17 -8 30 -17 31 -30 3 -45 8 -59 16 -9 6 -12 5 -8 -1 6 -10 -19 -28 -34 -25 -3 1 -4 -11 -1 -25 3 -18 1 -24 -7 -19 -6 4 -11 0 -11 -10 0 -10 3 -14 7 -11 7 7 39 -33 36 -44 -3 -8 66 6 74 15 10 9 44 -15 37 -26 -4 -6 -3 -8 4 -5 13 9 44 -2 37 -13 -3 -4 3 -7 13 -6 9 0 16 -4 15 -11 -2 -7 4 -10 13 -6 9 3 14 0 12 -8 -2 -8 3 -13 10 -12 19 4 17 -310 -3 -327 -8 -6 -20 -8 -26 -4 -8 5 -9 3 -4 -6 6 -10 4 -12 -8 -7 -10 4 -16 2 -14 -4 1 -6 -12 -19 -30 -28 -17 -10 -43 -25 -57 -34 -24 -16 -28 -16 -51 -1 -14 9 -22 20 -19 25 3 5 -3 6 -12 2 -13 -5 -15 -3 -9 7 5 8 4 11 -3 6 -14 -8 -74 28 -64 39 4 5 1 5 -6 1 -29 -17 -42 14 -42 103 0 79 2 90 24 110 13 13 26 38 28 56 2 19 2 32 0 30 -3 -2 -11 3 -20 11 -10 11 -29 14 -61 12 l-46 -3 3 -40 c2 -22 4 -47 5 -56 1 -10 7 -15 16 -11 9 3 12 1 7 -6 -4 -7 -2 -12 3 -12 7 0 11 -33 11 -90 0 -75 -3 -90 -16 -90 -8 0 -13 -4 -9 -9 8 -13 -32 -34 -48 -25 -6 4 -9 3 -4 -1 9 -11 -74 -66 -91 -60 -7 3 -10 0 -7 -5 3 -6 1 -10 -4 -10 -7 0 -11 -37 -11 -102 0 -107 -8 -136 -31 -123 -8 5 -11 5 -7 1 4 -5 3 -19 -2 -32 -6 -16 -6 -34 2 -51 6 -16 11 -31 10 -35 -1 -4 6 -4 15 -1 11 4 14 3 9 -5 -4 -7 -1 -12 9 -12 9 0 13 4 10 10 -3 6 3 10 13 10 11 0 25 7 32 15 7 8 16 13 20 10 9 -6 -4 57 -16 76 -5 8 -9 19 -9 24 -1 6 -6 9 -13 8 -9 -2 -12 22 -12 87 0 49 3 89 8 87 4 -1 8 3 10 8 5 16 31 27 44 19 7 -4 8 -3 4 4 -8 14 30 36 46 26 7 -5 8 -3 3 6 -6 10 -4 12 11 6 10 -4 15 -4 11 0 -8 8 22 33 41 34 7 0 10 -4 7 -10 -4 -6 1 -7 11 -3 13 5 15 3 9 -7 -5 -8 -4 -11 3 -7 15 10 43 -3 35 -16 -3 -6 -1 -7 6 -3 13 9 84 -32 76 -44 -3 -5 0 -10 6 -12 17 -6 24 -85 8 -105 -9 -11 -10 -14 -1 -9 6 4 12 5 12 2 0 -12 -71 -47 -82 -40 -7 4 -10 4 -6 -1 5 -5 -2 -15 -13 -23 -17 -12 -23 -12 -29 -2 -4 7 -13 9 -19 6 -7 -5 -11 2 -11 19 0 15 4 24 10 20 6 -3 10 -1 10 4 0 22 2 26 14 41 14 16 27 82 15 75 -4 -3 -12 2 -19 10 -16 19 -101 18 -93 -1 2 -6 -3 -18 -11 -27 -19 -18 -22 -52 -4 -41 8 5 9 2 5 -9 -3 -9 -1 -20 6 -24 11 -7 15 -9 35 -12 4 0 5 -49 2 -108 -4 -97 -7 -108 -23 -107 -10 1 -16 -1 -13 -4 9 -9 -54 -43 -66 -36 -7 4 -8 2 -4 -4 4 -7 -3 -16 -17 -21 -14 -6 -28 -15 -32 -20 -3 -6 -11 -11 -16 -11 -6 0 -7 5 -3 12 4 6 3 8 -4 4 -12 -7 -82 31 -82 45 0 5 -3 8 -7 8 -21 -3 -33 2 -27 13 4 6 3 8 -4 5 -14 -9 -43 3 -36 14 3 5 0 9 -6 9 -7 0 -10 60 -8 193 3 175 5 192 20 191 10 -1 16 2 13 6 -7 12 45 42 61 36 8 -3 12 -2 9 4 -8 12 32 33 48 24 6 -4 9 -4 5 1 -5 5 1 14 12 22 16 11 20 26 20 69 0 30 4 53 9 50 9 -6 44 28 37 35 -3 3 -1 21 3 42 5 20 5 35 1 32 -4 -3 -13 2 -20 10 -15 18 -74 20 -87 3 -15 -19 -34 -80 -23 -73 9 6 14 -8 11 -28 -1 -5 3 -6 9 -2 5 3 10 1 10 -5 0 -6 5 -8 10 -5 6 4 10 -12 10 -39 0 -25 -4 -46 -10 -46 -5 0 -9 -6 -7 -12 1 -7 -8 -13 -20 -13 -12 0 -26 -5 -30 -9 -5 -5 -1 -6 7 -2 8 4 6 0 -5 -8 -11 -9 -25 -14 -33 -11 -8 3 -10 0 -6 -7 5 -7 2 -9 -8 -6 -8 4 -21 2 -29 -4 -11 -7 -9 -8 6 -3 15 5 17 3 8 -6 -29 -29 -33 4 -33 251 l0 250 23 -9 c12 -4 28 -6 36 -3 8 3 11 0 7 -7 -4 -6 -2 -9 6 -6 8 3 22 -2 33 -11 11 -8 14 -12 6 -8 -9 4 -12 3 -7 -4 4 -6 13 -9 21 -6 16 7 37 -36 33 -64 -2 -14 6 -16 42 -15 79 3 77 2 75 51 -1 28 -8 49 -18 57 -9 7 -13 15 -9 20 4 4 -4 4 -18 -1 -14 -4 -36 -8 -49 -7 -18 1 -20 -1 -10 -8 9 -6 10 -9 2 -9 -7 0 -26 14 -43 30 -17 17 -35 28 -41 25 -12 -8 -70 26 -63 37 3 4 -2 5 -11 2 -14 -6 -15 17 -13 212 3 201 4 219 20 218 10 -1 16 1 13 5 -6 11 54 43 67 35 7 -5 8 -3 3 6 -6 10 -4 12 9 7 10 -4 15 -3 11 3 -7 12 32 33 47 24 7 -4 8 -3 4 4 -10 16 5 15 26 -2z m-27 -126 c-4 -6 4 -9 17 -7 17 1 24 -4 26 -22 4 -28 -10 -44 -40 -47 -45 -3 -62 33 -31 68 17 19 39 25 28 8z m155 -184 c0 -3 -5 -8 -12 -12 -7 -4 -8 -3 -4 4 7 12 16 16 16 8z m70 -28 c23 -26 24 -27 6 -51 -19 -25 -72 -20 -68 7 2 11 -1 15 -7 11 -18 -11 -12 22 7 36 16 13 16 13 2 -5 -14 -18 -14 -18 7 -6 12 8 19 18 17 22 -11 17 16 7 36 -14z m183 -236 c24 -27 2 -67 -38 -67 -22 0 -30 4 -29 17 1 10 -2 15 -7 12 -15 -9 -10 19 8 38 20 23 45 23 66 0z m-538 -2 c3 -6 -1 -7 -9 -4 -18 7 -21 14 -7 14 6 0 13 -4 16 -10z m189 -36 c8 -3 12 -12 9 -21 -4 -11 -2 -14 5 -9 16 10 16 -26 0 -42 -26 -26 -78 -8 -78 27 0 16 28 51 41 51 4 0 14 -3 23 -6z m170 -170 c19 -18 19 -20 6 -45 -13 -23 -68 -21 -82 4 -23 42 41 77 76 41z m-205 -23 c8 -5 10 -14 6 -21 -5 -9 -4 -11 3 -6 16 10 16 -29 0 -42 -21 -16 -63 -9 -62 11 1 9 -2 14 -7 11 -15 -9 -10 19 8 38 18 20 31 22 52 9z m31 -85 c0 -3 -5 -8 -12 -12 -7 -4 -8 -3 -4 4 7 12 16 16 16 8z m334 -68 c-5 -8 -2 -9 9 -5 11 4 21 -1 28 -15 9 -18 8 -24 -7 -35 -10 -7 -14 -13 -8 -13 5 0 1 -5 -10 -11 -15 -9 -23 -6 -42 16 -23 26 -23 35 -1 63 12 15 41 16 31 0z m-156 -268 c9 -15 9 -22 -3 -33 -8 -8 -12 -17 -9 -20 10 -10 -22 -14 -45 -6 -15 6 -21 14 -17 25 3 8 2 12 -4 9 -13 -8 -13 18 0 31 17 17 65 14 78 -6z m-83 -70 c3 -5 4 -10 1 -10 -3 0 -8 5 -11 10 -3 6 -4 10 -1 10 3 0 8 -4 11 -10z m-111 -132 c14 -23 -4 -54 -29 -50 -10 2 -14 -1 -10 -7 11 -19 -11 -12 -30 9 -15 17 -16 24 -7 46 9 19 18 25 39 22 14 -2 31 -11 37 -20z"/>
 <path d="M1964 2308 c-4 -7 -3 -8 4 -4 7 4 12 9 12 12 0 8 -9 4 -16 -8z"/>
 <path d="M2284 1908 c-4 -7 -3 -8 4 -4 7 4 12 9 12 12 0 8 -9 4 -16 -8z"/>
 <path d="M2100 1690 c0 -7 3 -10 7 -7 3 4 3 10 0 14 -4 3 -7 0 -7 -7z"/>
 <path d="M1964 1628 c-4 -7 -3 -8 4 -4 7 4 12 9 12 12 0 8 -9 4 -16 -8z"/>
 </g>
<g id="layer106" fill="#fefefe" stroke="none">
 <path d="M0 1690 l0 -1690 1690 0 1690 0 0 1690 0 1690 -1690 0 -1690 0 0 -1690z m1523 823 c45 -25 94 -55 110 -65 l27 -19 -2 -742 -3 -742 -67 -40 c-37 -22 -87 -51 -111 -64 l-45 -24 -111 64 -111 64 0 51 0 50 -95 54 -95 54 0 71 0 71 -95 54 -95 54 0 286 0 286 95 54 95 54 0 71 0 71 95 54 95 54 0 50 0 51 108 62 c59 34 111 63 115 63 4 0 45 -21 90 -47z m538 -15 l109 -63 0 -51 0 -50 95 -54 95 -54 0 -71 0 -71 95 -54 95 -54 0 -286 0 -286 -95 -54 -95 -54 0 -70 0 -71 -95 -55 -95 -54 0 -51 0 -51 -111 -63 -112 -64 -44 24 c-24 13 -74 42 -111 64 l-67 40 0 745 0 744 105 63 c58 34 109 63 114 63 5 0 57 -28 117 -62z"/>
 <path d="M1348 2444 l-78 -45 0 -94 c0 -87 2 -96 25 -119 31 -31 33 -74 5 -104 -29 -31 -65 -38 -96 -18 -46 31 -51 91 -10 125 14 12 24 71 12 71 -3 0 -32 -16 -65 -35 l-61 -36 0 -52 0 -53 81 -47 80 -47 80 46 79 46 0 85 c0 70 -4 89 -20 110 -29 37 -26 87 6 112 35 28 69 26 99 -4 33 -32 33 -78 0 -109 -24 -22 -25 -29 -25 -127 l0 -104 -95 -53 -95 -54 0 -85 c0 -79 2 -88 25 -109 64 -60 -17 -168 -91 -120 -46 31 -51 91 -10 125 12 11 16 33 16 101 l0 88 -80 47 -80 47 -77 -45 -78 -45 -3 -161 -2 -161 57 -32 c47 -27 67 -32 104 -30 40 3 49 0 68 -24 28 -35 27 -69 -4 -99 -44 -45 -103 -30 -128 32 -11 26 -29 45 -57 61 l-41 23 3 -57 3 -56 77 -45 77 -44 81 47 81 46 -3 41 c-3 40 -5 42 -93 93 l-90 52 -3 88 c-2 72 -6 92 -22 106 -44 41 -30 107 28 129 75 29 133 -76 72 -129 -16 -13 -20 -29 -20 -87 l0 -70 95 -53 95 -54 0 -58 0 -58 95 -54 95 -53 0 -104 c0 -98 1 -105 25 -127 33 -31 33 -77 0 -109 -30 -30 -64 -32 -99 -4 -32 25 -35 75 -6 112 16 21 20 40 20 110 l0 85 -79 46 -80 46 -80 -47 -81 -47 0 -53 0 -52 61 -36 c33 -19 62 -35 65 -35 12 0 2 59 -12 71 -41 34 -36 94 10 125 31 20 67 13 96 -18 28 -30 26 -73 -5 -104 -23 -23 -25 -32 -25 -119 l0 -93 78 -46 c43 -25 82 -46 86 -46 4 0 43 21 87 46 l79 46 -2 201 -3 202 -70 42 c-61 37 -75 42 -110 37 -32 -4 -46 -1 -68 16 -55 43 -25 130 46 130 42 0 65 -17 75 -55 6 -21 23 -38 63 -62 30 -18 57 -32 62 -33 4 0 7 110 7 245 0 144 -4 245 -9 245 -5 0 -37 -16 -70 -36 -56 -33 -61 -39 -61 -72 0 -24 7 -42 25 -58 33 -31 33 -77 0 -109 -30 -30 -64 -32 -99 -4 -32 25 -35 75 -7 111 13 16 21 44 23 79 l3 54 98 58 97 59 0 183 0 183 -80 46 c-43 25 -83 46 -87 46 -4 0 -43 -21 -85 -46z"/>
 <path d="M1404 2345 c-7 -17 12 -45 31 -45 19 0 36 25 29 44 -8 20 -53 21 -60 1z"/>
 <path d="M1214 2146 c-10 -26 4 -48 28 -44 17 2 23 10 23 28 0 18 -6 26 -23 28 -13 2 -25 -3 -28 -12z"/>
 <path d="M1024 1896 c-10 -26 4 -48 28 -44 17 2 23 10 23 28 0 18 -6 26 -23 28 -13 2 -25 -3 -28 -12z"/>
 <path d="M1410 1745 c-17 -21 -5 -45 24 -45 27 0 42 26 25 46 -15 18 -33 18 -49 -1z"/>
 <path d="M1214 1706 c-10 -26 4 -48 28 -44 17 2 23 10 23 28 0 18 -6 26 -23 28 -13 2 -25 -3 -28 -12z"/>
 <path d="M1372 1558 c-18 -18 -15 -36 7 -48 15 -7 23 -6 35 6 9 8 16 19 16 23 0 11 -23 31 -35 31 -6 0 -16 -5 -23 -12z"/>
 <path d="M1042 1508 c-16 -16 -15 -33 3 -48 20 -17 47 5 43 34 -4 24 -28 32 -46 14z"/>
 <path d="M1214 1266 c-10 -26 4 -48 28 -44 17 2 23 10 23 28 0 18 -6 26 -23 28 -13 2 -25 -3 -28 -12z"/>
 <path d="M1411 1066 c-16 -20 -3 -46 24 -46 13 0 26 7 29 16 7 19 -10 44 -29 44 -7 0 -18 -6 -24 -14z"/>
 <path d="M1914 2476 c-11 -8 -45 -28 -75 -44 l-54 -31 0 -203 0 -203 70 -42 c62 -38 75 -42 113 -37 36 5 47 3 68 -17 50 -47 20 -129 -49 -129 -42 0 -65 17 -75 54 -6 21 -23 37 -60 58 -28 16 -56 27 -62 23 -6 -4 -10 -89 -10 -236 0 -261 -5 -250 86 -198 49 28 54 33 54 66 0 25 -7 43 -25 59 -33 31 -33 77 0 109 30 30 64 32 99 4 32 -25 35 -75 6 -112 -14 -18 -20 -40 -20 -79 l0 -53 -100 -58 -100 -58 0 -184 0 -183 80 -46 c43 -25 82 -46 85 -46 3 0 42 21 85 46 l80 46 0 93 c0 87 -2 96 -25 119 -31 31 -33 74 -5 104 29 31 65 38 96 18 46 -31 51 -91 10 -125 -19 -16 -22 -61 -3 -61 6 0 36 14 65 30 l52 30 0 53 0 53 -74 42 c-40 23 -80 42 -89 42 -8 0 -47 -18 -86 -41 l-71 -41 0 -85 c0 -70 4 -89 20 -110 29 -37 26 -87 -6 -112 -35 -28 -69 -26 -99 4 -33 32 -33 78 0 109 24 22 25 29 25 127 l0 104 95 54 95 55 0 85 c0 78 -3 88 -25 110 -40 37 -32 92 17 117 83 43 156 -66 84 -125 -12 -11 -16 -33 -16 -101 l0 -88 81 -47 80 -46 80 46 79 47 0 159 0 159 -57 32 c-48 27 -67 32 -108 30 -46 -3 -51 -1 -67 26 -24 41 -22 68 7 97 45 45 115 24 131 -39 5 -23 61 -66 85 -66 5 0 9 22 9 49 l0 49 -79 47 -80 46 -81 -47 -81 -46 3 -41 c3 -40 5 -42 93 -92 l90 -52 3 -89 c2 -72 6 -92 22 -106 29 -27 35 -64 16 -94 -36 -55 -96 -55 -132 0 -19 30 -13 69 16 94 16 13 20 29 20 87 l0 70 -42 23 c-24 12 -48 22 -55 22 -7 0 -16 6 -20 14 -4 7 -23 21 -40 30 -32 16 -33 19 -33 74 l0 58 -95 55 -95 54 0 101 c0 94 -2 103 -25 128 -33 35 -33 79 0 111 30 30 64 32 99 4 32 -25 35 -75 6 -112 -16 -21 -20 -40 -20 -110 l0 -85 71 -41 c39 -23 78 -41 87 -41 9 0 49 19 89 42 l73 42 0 53 0 53 -52 30 c-29 16 -59 30 -65 30 -19 0 -16 -45 3 -61 41 -34 36 -94 -10 -125 -75 -49 -155 58 -91 122 23 23 25 32 25 119 l0 93 -78 46 c-88 51 -89 52 -118 32z"/>
 <path d="M1916 2344 c-7 -19 10 -44 29 -44 19 0 36 25 29 44 -3 9 -16 16 -29 16 -13 0 -26 -7 -29 -16z"/>
 <path d="M2115 2150 c-12 -20 6 -51 28 -48 31 4 31 52 0 56 -11 2 -24 -2 -28 -8z"/>
 <path d="M2302 1918 c-16 -16 -15 -33 3 -48 12 -10 18 -10 30 0 20 17 19 37 -3 49 -13 7 -23 6 -30 -1z"/>
 <path d="M1956 1854 c-6 -16 9 -44 23 -44 19 0 42 27 35 43 -8 22 -50 22 -58 1z"/>
 <path d="M2114 1706 c-10 -26 4 -48 28 -44 17 2 23 10 23 28 0 18 -6 26 -23 28 -13 2 -25 -3 -28 -12z"/>
 <path d="M1920 1655 c0 -31 26 -43 46 -23 20 20 7 48 -22 48 -19 0 -24 -5 -24 -25z"/>
 <path d="M2312 1521 c-23 -14 -10 -46 18 -46 20 0 25 5 25 25 0 26 -20 36 -43 21z"/>
 <path d="M2114 1266 c-10 -26 4 -48 28 -44 17 2 23 10 23 28 0 18 -6 26 -23 28 -13 2 -25 -3 -28 -12z"/>
 <path d="M1927 1073 c-4 -3 -7 -17 -7 -30 0 -18 6 -23 24 -23 13 0 27 7 30 16 11 28 -27 57 -47 37z"/>
 </g>

</svg>